solid Belt_fastner
   facet normal 1.000000e+00 -0.000000e+00 0.000000e+00
      outer loop
         vertex 2.200000e+01 0.000000e+00 1.600000e+01
         vertex 2.200000e+01 0.000000e+00 1.999999e+00
         vertex 2.200000e+01 3.000000e+00 1.600000e+01
      endloop
   endfacet
   facet normal 1.000000e+00 0.000000e+00 0.000000e+00
      outer loop
         vertex 2.200000e+01 3.000000e+00 1.600000e+01
         vertex 2.200000e+01 0.000000e+00 1.999999e+00
         vertex 2.200000e+01 3.000000e+00 1.999999e+00
      endloop
   endfacet
   facet normal 0.000000e+00 0.000000e+00 -1.000000e+00
      outer loop
         vertex 2.000000e+01 0.000000e+00 0.000000e+00
         vertex 2.000000e+00 0.000000e+00 0.000000e+00
         vertex 2.000000e+01 3.000000e+00 0.000000e+00
      endloop
   endfacet
   facet normal -0.000000e+00 0.000000e+00 -1.000000e+00
      outer loop
         vertex 2.000000e+01 3.000000e+00 0.000000e+00
         vertex 2.000000e+00 0.000000e+00 0.000000e+00
         vertex 2.000000e+00 3.000000e+00 0.000000e+00
      endloop
   endfacet
   facet normal -1.000000e+00 0.000000e+00 0.000000e+00
      outer loop
         vertex 0.000000e+00 0.000000e+00 1.999999e+00
         vertex 0.000000e+00 0.000000e+00 1.600000e+01
         vertex 0.000000e+00 3.000000e+00 1.999999e+00
      endloop
   endfacet
   facet normal -1.000000e+00 0.000000e+00 0.000000e+00
      outer loop
         vertex 0.000000e+00 3.000000e+00 1.999999e+00
         vertex 0.000000e+00 0.000000e+00 1.600000e+01
         vertex 0.000000e+00 3.000000e+00 1.600000e+01
      endloop
   endfacet
   facet normal 0.000000e+00 0.000000e+00 1.000000e+00
      outer loop
         vertex 2.000000e+01 3.000000e+00 1.800000e+01
         vertex 2.000000e+00 3.000000e+00 1.800000e+01
         vertex 2.000000e+01 0.000000e+00 1.800000e+01
      endloop
   endfacet
   facet normal 0.000000e+00 0.000000e+00 1.000000e+00
      outer loop
         vertex 2.000000e+01 0.000000e+00 1.800000e+01
         vertex 2.000000e+00 3.000000e+00 1.800000e+01
         vertex 2.000000e+00 0.000000e+00 1.800000e+01
      endloop
   endfacet
   facet normal 0.000000e+00 1.000000e+00 -0.000000e+00
      outer loop
         vertex 1.069612e+01 3.000000e+00 1.672341e+01
         vertex 2.000000e+00 3.000000e+00 1.800000e+01
         vertex 1.100000e+01 3.000000e+00 1.675000e+01
      endloop
   endfacet
   facet normal 0.000000e+00 1.000000e+00 -0.000000e+00
      outer loop
         vertex 1.100000e+01 3.000000e+00 1.675000e+01
         vertex 2.000000e+00 3.000000e+00 1.800000e+01
         vertex 2.000000e+01 3.000000e+00 1.800000e+01
      endloop
   endfacet
   facet normal 0.000000e+00 1.000000e+00 0.000000e+00
      outer loop
         vertex 1.069612e+01 3.000000e+00 1.672341e+01
         vertex 1.040146e+01 3.000000e+00 1.664446e+01
         vertex 2.000000e+00 3.000000e+00 1.800000e+01
      endloop
   endfacet
   facet normal 0.000000e+00 1.000000e+00 0.000000e+00
      outer loop
         vertex 2.000000e+00 3.000000e+00 1.800000e+01
         vertex 1.040146e+01 3.000000e+00 1.664446e+01
         vertex 1.012500e+01 3.000000e+00 1.651554e+01
      endloop
   endfacet
   facet normal 0.000000e+00 1.000000e+00 0.000000e+00
      outer loop
         vertex 2.000000e+00 3.000000e+00 1.800000e+01
         vertex 1.012500e+01 3.000000e+00 1.651554e+01
         vertex 9.875122e+00 3.000000e+00 1.634058e+01
      endloop
   endfacet
   facet normal 0.000000e+00 1.000000e+00 0.000000e+00
      outer loop
         vertex 9.659422e+00 3.000000e+00 4.124878e+00
         vertex 9.484455e+00 3.000000e+00 3.874999e+00
         vertex 0.000000e+00 3.000000e+00 1.600000e+01
      endloop
   endfacet
   facet normal 0.000000e+00 1.000000e+00 0.000000e+00
      outer loop
         vertex 9.875122e+00 3.000000e+00 1.634058e+01
         vertex 9.659422e+00 3.000000e+00 1.612488e+01
         vertex 2.000000e+00 3.000000e+00 1.800000e+01
      endloop
   endfacet
   facet normal 0.000000e+00 1.000000e+00 0.000000e+00
      outer loop
         vertex 2.000000e+00 3.000000e+00 1.800000e+01
         vertex 9.659422e+00 3.000000e+00 1.612488e+01
         vertex 9.484455e+00 3.000000e+00 1.587500e+01
      endloop
   endfacet
   facet normal 0.000000e+00 1.000000e+00 0.000000e+00
      outer loop
         vertex 2.000000e+00 3.000000e+00 1.800000e+01
         vertex 9.484455e+00 3.000000e+00 1.587500e+01
         vertex 9.355538e+00 3.000000e+00 1.559854e+01
      endloop
   endfacet
   facet normal 0.000000e+00 1.000000e+00 0.000000e+00
      outer loop
         vertex 1.264446e+01 3.000000e+00 3.598535e+00
         vertex 1.251554e+01 3.000000e+00 3.874999e+00
         vertex 1.012500e+01 3.000000e+00 1.348446e+01
      endloop
   endfacet
   facet normal -0.000000e+00 1.000000e+00 0.000000e+00
      outer loop
         vertex 1.187500e+01 3.000000e+00 1.484455e+00
         vertex 1.212488e+01 3.000000e+00 1.659422e+00
         vertex 2.000000e+01 3.000000e+00 0.000000e+00
      endloop
   endfacet
   facet normal 0.000000e+00 1.000000e+00 0.000000e+00
      outer loop
         vertex 2.000000e+00 3.000000e+00 0.000000e+00
         vertex 9.484455e+00 3.000000e+00 2.125000e+00
         vertex 9.659422e+00 3.000000e+00 1.875121e+00
      endloop
   endfacet
   facet normal 0.000000e+00 1.000000e+00 0.000000e+00
      outer loop
         vertex 9.484455e+00 3.000000e+00 1.412500e+01
         vertex 1.100000e+01 3.000000e+00 4.749999e+00
         vertex 9.355538e+00 3.000000e+00 1.440146e+01
      endloop
   endfacet
   facet normal 0.000000e+00 1.000000e+00 0.000000e+00
      outer loop
         vertex 9.355538e+00 3.000000e+00 1.440146e+01
         vertex 1.100000e+01 3.000000e+00 4.749999e+00
         vertex 9.276586e+00 3.000000e+00 1.469612e+01
      endloop
   endfacet
   facet normal 0.000000e+00 1.000000e+00 0.000000e+00
      outer loop
         vertex 1.187500e+01 3.000000e+00 1.484455e+00
         vertex 2.000000e+01 3.000000e+00 0.000000e+00
         vertex 1.159854e+01 3.000000e+00 1.355538e+00
      endloop
   endfacet
   facet normal 0.000000e+00 1.000000e+00 0.000000e+00
      outer loop
         vertex 1.251554e+01 3.000000e+00 3.874999e+00
         vertex 1.234058e+01 3.000000e+00 4.124878e+00
         vertex 1.012500e+01 3.000000e+00 1.348446e+01
      endloop
   endfacet
   facet normal 0.000000e+00 1.000000e+00 0.000000e+00
      outer loop
         vertex 1.012500e+01 3.000000e+00 1.348446e+01
         vertex 1.234058e+01 3.000000e+00 4.124878e+00
         vertex 1.212488e+01 3.000000e+00 4.340577e+00
      endloop
   endfacet
   facet normal 0.000000e+00 1.000000e+00 0.000000e+00
      outer loop
         vertex 1.012500e+01 3.000000e+00 1.348446e+01
         vertex 1.212488e+01 3.000000e+00 4.340577e+00
         vertex 1.187500e+01 3.000000e+00 4.515544e+00
      endloop
   endfacet
   facet normal -0.000000e+00 1.000000e+00 0.000000e+00
      outer loop
         vertex 1.234058e+01 3.000000e+00 1.387512e+01
         vertex 1.251554e+01 3.000000e+00 1.412500e+01
         vertex 2.200000e+01 3.000000e+00 1.999999e+00
      endloop
   endfacet
   facet normal 0.000000e+00 1.000000e+00 0.000000e+00
      outer loop
         vertex 9.355538e+00 3.000000e+00 1.559854e+01
         vertex 9.276586e+00 3.000000e+00 1.530388e+01
         vertex 2.000000e+00 3.000000e+00 1.800000e+01
      endloop
   endfacet
   facet normal 0.000000e+00 1.000000e+00 0.000000e+00
      outer loop
         vertex 2.000000e+00 3.000000e+00 1.800000e+01
         vertex 9.276586e+00 3.000000e+00 1.530388e+01
         vertex 9.250000e+00 3.000000e+00 1.500000e+01
      endloop
   endfacet
   facet normal 0.000000e+00 1.000000e+00 0.000000e+00
      outer loop
         vertex 2.000000e+00 3.000000e+00 1.800000e+01
         vertex 9.250000e+00 3.000000e+00 1.500000e+01
         vertex 9.276586e+00 3.000000e+00 1.469612e+01
      endloop
   endfacet
   facet normal 0.000000e+00 1.000000e+00 0.000000e+00
      outer loop
         vertex 0.000000e+00 3.000000e+00 1.600000e+01
         vertex 9.484455e+00 3.000000e+00 3.874999e+00
         vertex 0.000000e+00 3.000000e+00 1.999999e+00
      endloop
   endfacet
   facet normal 0.000000e+00 1.000000e+00 0.000000e+00
      outer loop
         vertex 0.000000e+00 3.000000e+00 1.999999e+00
         vertex 9.484455e+00 3.000000e+00 3.874999e+00
         vertex 9.355538e+00 3.000000e+00 3.598535e+00
      endloop
   endfacet
   facet normal 0.000000e+00 1.000000e+00 0.000000e+00
      outer loop
         vertex 0.000000e+00 3.000000e+00 1.999999e+00
         vertex 9.355538e+00 3.000000e+00 3.598535e+00
         vertex 9.276586e+00 3.000000e+00 3.303884e+00
      endloop
   endfacet
   facet normal 0.000000e+00 1.000000e+00 0.000000e+00
      outer loop
         vertex 1.069612e+01 3.000000e+00 1.327659e+01
         vertex 1.100000e+01 3.000000e+00 1.325000e+01
         vertex 1.272341e+01 3.000000e+00 3.303884e+00
      endloop
   endfacet
   facet normal 0.000000e+00 1.000000e+00 -0.000000e+00
      outer loop
         vertex 1.251554e+01 3.000000e+00 1.587500e+01
         vertex 1.234058e+01 3.000000e+00 1.612488e+01
         vertex 2.000000e+01 3.000000e+00 1.800000e+01
      endloop
   endfacet
   facet normal 0.000000e+00 1.000000e+00 0.000000e+00
      outer loop
         vertex 2.000000e+01 3.000000e+00 1.800000e+01
         vertex 1.234058e+01 3.000000e+00 1.612488e+01
         vertex 1.212488e+01 3.000000e+00 1.634058e+01
      endloop
   endfacet
   facet normal 0.000000e+00 1.000000e+00 0.000000e+00
      outer loop
         vertex 2.000000e+01 3.000000e+00 1.800000e+01
         vertex 1.212488e+01 3.000000e+00 1.634058e+01
         vertex 1.187500e+01 3.000000e+00 1.651554e+01
      endloop
   endfacet
   facet normal 0.000000e+00 1.000000e+00 -0.000000e+00
      outer loop
         vertex 1.187500e+01 3.000000e+00 1.651554e+01
         vertex 1.159854e+01 3.000000e+00 1.664446e+01
         vertex 2.000000e+01 3.000000e+00 1.800000e+01
      endloop
   endfacet
   facet normal 0.000000e+00 1.000000e+00 0.000000e+00
      outer loop
         vertex 2.000000e+01 3.000000e+00 1.800000e+01
         vertex 1.159854e+01 3.000000e+00 1.664446e+01
         vertex 1.130388e+01 3.000000e+00 1.672341e+01
      endloop
   endfacet
   facet normal 0.000000e+00 1.000000e+00 0.000000e+00
      outer loop
         vertex 2.000000e+01 3.000000e+00 1.800000e+01
         vertex 1.130388e+01 3.000000e+00 1.672341e+01
         vertex 1.100000e+01 3.000000e+00 1.675000e+01
      endloop
   endfacet
   facet normal 0.000000e+00 1.000000e+00 0.000000e+00
      outer loop
         vertex 1.100000e+01 3.000000e+00 4.749999e+00
         vertex 1.069612e+01 3.000000e+00 4.723413e+00
         vertex 9.276586e+00 3.000000e+00 1.469612e+01
      endloop
   endfacet
   facet normal 0.000000e+00 1.000000e+00 0.000000e+00
      outer loop
         vertex 9.276586e+00 3.000000e+00 1.469612e+01
         vertex 1.069612e+01 3.000000e+00 4.723413e+00
         vertex 1.040146e+01 3.000000e+00 4.644462e+00
      endloop
   endfacet
   facet normal 0.000000e+00 1.000000e+00 0.000000e+00
      outer loop
         vertex 9.276586e+00 3.000000e+00 1.469612e+01
         vertex 1.040146e+01 3.000000e+00 4.644462e+00
         vertex 2.000000e+00 3.000000e+00 1.800000e+01
      endloop
   endfacet
   facet normal 0.000000e+00 1.000000e+00 0.000000e+00
      outer loop
         vertex 2.000000e+00 3.000000e+00 1.800000e+01
         vertex 1.040146e+01 3.000000e+00 4.644462e+00
         vertex 1.012500e+01 3.000000e+00 4.515544e+00
      endloop
   endfacet
   facet normal 0.000000e+00 1.000000e+00 0.000000e+00
      outer loop
         vertex 2.000000e+00 3.000000e+00 1.800000e+01
         vertex 1.012500e+01 3.000000e+00 4.515544e+00
         vertex 0.000000e+00 3.000000e+00 1.600000e+01
      endloop
   endfacet
   facet normal 0.000000e+00 1.000000e+00 0.000000e+00
      outer loop
         vertex 0.000000e+00 3.000000e+00 1.600000e+01
         vertex 1.012500e+01 3.000000e+00 4.515544e+00
         vertex 9.875122e+00 3.000000e+00 4.340577e+00
      endloop
   endfacet
   facet normal 0.000000e+00 1.000000e+00 0.000000e+00
      outer loop
         vertex 0.000000e+00 3.000000e+00 1.600000e+01
         vertex 9.875122e+00 3.000000e+00 4.340577e+00
         vertex 9.659422e+00 3.000000e+00 4.124878e+00
      endloop
   endfacet
   facet normal 0.000000e+00 1.000000e+00 0.000000e+00
      outer loop
         vertex 9.659422e+00 3.000000e+00 1.875121e+00
         vertex 9.875122e+00 3.000000e+00 1.659422e+00
         vertex 2.000000e+00 3.000000e+00 0.000000e+00
      endloop
   endfacet
   facet normal 0.000000e+00 1.000000e+00 0.000000e+00
      outer loop
         vertex 2.000000e+00 3.000000e+00 0.000000e+00
         vertex 9.875122e+00 3.000000e+00 1.659422e+00
         vertex 1.012500e+01 3.000000e+00 1.484455e+00
      endloop
   endfacet
   facet normal 0.000000e+00 1.000000e+00 0.000000e+00
      outer loop
         vertex 2.000000e+00 3.000000e+00 0.000000e+00
         vertex 1.012500e+01 3.000000e+00 1.484455e+00
         vertex 1.040146e+01 3.000000e+00 1.355538e+00
      endloop
   endfacet
   facet normal 0.000000e+00 1.000000e+00 0.000000e+00
      outer loop
         vertex 1.040146e+01 3.000000e+00 1.355538e+00
         vertex 1.069612e+01 3.000000e+00 1.276586e+00
         vertex 2.000000e+00 3.000000e+00 0.000000e+00
      endloop
   endfacet
   facet normal 0.000000e+00 1.000000e+00 0.000000e+00
      outer loop
         vertex 2.000000e+00 3.000000e+00 0.000000e+00
         vertex 1.069612e+01 3.000000e+00 1.276586e+00
         vertex 1.100000e+01 3.000000e+00 1.250000e+00
      endloop
   endfacet
   facet normal 0.000000e+00 1.000000e+00 0.000000e+00
      outer loop
         vertex 2.000000e+00 3.000000e+00 0.000000e+00
         vertex 1.100000e+01 3.000000e+00 1.250000e+00
         vertex 2.000000e+01 3.000000e+00 0.000000e+00
      endloop
   endfacet
   facet normal 0.000000e+00 1.000000e+00 0.000000e+00
      outer loop
         vertex 2.000000e+01 3.000000e+00 0.000000e+00
         vertex 1.100000e+01 3.000000e+00 1.250000e+00
         vertex 1.130388e+01 3.000000e+00 1.276586e+00
      endloop
   endfacet
   facet normal 0.000000e+00 1.000000e+00 0.000000e+00
      outer loop
         vertex 2.000000e+01 3.000000e+00 0.000000e+00
         vertex 1.130388e+01 3.000000e+00 1.276586e+00
         vertex 1.159854e+01 3.000000e+00 1.355538e+00
      endloop
   endfacet
   facet normal -0.000000e+00 1.000000e+00 0.000000e+00
      outer loop
         vertex 1.212488e+01 3.000000e+00 1.659422e+00
         vertex 1.234058e+01 3.000000e+00 1.875121e+00
         vertex 2.000000e+01 3.000000e+00 0.000000e+00
      endloop
   endfacet
   facet normal 0.000000e+00 1.000000e+00 0.000000e+00
      outer loop
         vertex 2.000000e+01 3.000000e+00 0.000000e+00
         vertex 1.234058e+01 3.000000e+00 1.875121e+00
         vertex 1.251554e+01 3.000000e+00 2.125000e+00
      endloop
   endfacet
   facet normal 0.000000e+00 1.000000e+00 0.000000e+00
      outer loop
         vertex 2.000000e+01 3.000000e+00 0.000000e+00
         vertex 1.251554e+01 3.000000e+00 2.125000e+00
         vertex 1.264446e+01 3.000000e+00 2.401464e+00
      endloop
   endfacet
   facet normal 0.000000e+00 1.000000e+00 -0.000000e+00
      outer loop
         vertex 2.200000e+01 3.000000e+00 1.999999e+00
         vertex 1.251554e+01 3.000000e+00 1.412500e+01
         vertex 2.200000e+01 3.000000e+00 1.600000e+01
      endloop
   endfacet
   facet normal 0.000000e+00 1.000000e+00 0.000000e+00
      outer loop
         vertex 2.200000e+01 3.000000e+00 1.600000e+01
         vertex 1.251554e+01 3.000000e+00 1.412500e+01
         vertex 1.264446e+01 3.000000e+00 1.440146e+01
      endloop
   endfacet
   facet normal 0.000000e+00 1.000000e+00 0.000000e+00
      outer loop
         vertex 2.200000e+01 3.000000e+00 1.600000e+01
         vertex 1.264446e+01 3.000000e+00 1.440146e+01
         vertex 1.272341e+01 3.000000e+00 1.469612e+01
      endloop
   endfacet
   facet normal 0.000000e+00 1.000000e+00 0.000000e+00
      outer loop
         vertex 1.272341e+01 3.000000e+00 1.469612e+01
         vertex 1.275000e+01 3.000000e+00 1.500000e+01
         vertex 2.200000e+01 3.000000e+00 1.600000e+01
      endloop
   endfacet
   facet normal 0.000000e+00 1.000000e+00 0.000000e+00
      outer loop
         vertex 2.200000e+01 3.000000e+00 1.600000e+01
         vertex 1.275000e+01 3.000000e+00 1.500000e+01
         vertex 1.272341e+01 3.000000e+00 1.530388e+01
      endloop
   endfacet
   facet normal 0.000000e+00 1.000000e+00 0.000000e+00
      outer loop
         vertex 2.200000e+01 3.000000e+00 1.600000e+01
         vertex 1.272341e+01 3.000000e+00 1.530388e+01
         vertex 2.000000e+01 3.000000e+00 1.800000e+01
      endloop
   endfacet
   facet normal 0.000000e+00 1.000000e+00 0.000000e+00
      outer loop
         vertex 2.000000e+01 3.000000e+00 1.800000e+01
         vertex 1.272341e+01 3.000000e+00 1.530388e+01
         vertex 1.264446e+01 3.000000e+00 1.559854e+01
      endloop
   endfacet
   facet normal 0.000000e+00 1.000000e+00 0.000000e+00
      outer loop
         vertex 2.000000e+01 3.000000e+00 1.800000e+01
         vertex 1.264446e+01 3.000000e+00 1.559854e+01
         vertex 1.251554e+01 3.000000e+00 1.587500e+01
      endloop
   endfacet
   facet normal 0.000000e+00 1.000000e+00 0.000000e+00
      outer loop
         vertex 9.276586e+00 3.000000e+00 3.303884e+00
         vertex 9.250000e+00 3.000000e+00 3.000000e+00
         vertex 0.000000e+00 3.000000e+00 1.999999e+00
      endloop
   endfacet
   facet normal 0.000000e+00 1.000000e+00 0.000000e+00
      outer loop
         vertex 0.000000e+00 3.000000e+00 1.999999e+00
         vertex 9.250000e+00 3.000000e+00 3.000000e+00
         vertex 9.276586e+00 3.000000e+00 2.696116e+00
      endloop
   endfacet
   facet normal -0.000000e+00 1.000000e+00 0.000000e+00
      outer loop
         vertex 0.000000e+00 3.000000e+00 1.999999e+00
         vertex 9.276586e+00 3.000000e+00 2.696116e+00
         vertex 2.000000e+00 3.000000e+00 0.000000e+00
      endloop
   endfacet
   facet normal 0.000000e+00 1.000000e+00 0.000000e+00
      outer loop
         vertex 2.000000e+00 3.000000e+00 0.000000e+00
         vertex 9.276586e+00 3.000000e+00 2.696116e+00
         vertex 9.355538e+00 3.000000e+00 2.401464e+00
      endloop
   endfacet
   facet normal 0.000000e+00 1.000000e+00 0.000000e+00
      outer loop
         vertex 2.000000e+00 3.000000e+00 0.000000e+00
         vertex 9.355538e+00 3.000000e+00 2.401464e+00
         vertex 9.484455e+00 3.000000e+00 2.125000e+00
      endloop
   endfacet
   facet normal 0.000000e+00 1.000000e+00 0.000000e+00
      outer loop
         vertex 1.187500e+01 3.000000e+00 4.515544e+00
         vertex 1.159854e+01 3.000000e+00 4.644462e+00
         vertex 1.012500e+01 3.000000e+00 1.348446e+01
      endloop
   endfacet
   facet normal 0.000000e+00 1.000000e+00 0.000000e+00
      outer loop
         vertex 1.012500e+01 3.000000e+00 1.348446e+01
         vertex 1.159854e+01 3.000000e+00 4.644462e+00
         vertex 1.130388e+01 3.000000e+00 4.723413e+00
      endloop
   endfacet
   facet normal 0.000000e+00 1.000000e+00 0.000000e+00
      outer loop
         vertex 1.012500e+01 3.000000e+00 1.348446e+01
         vertex 1.130388e+01 3.000000e+00 4.723413e+00
         vertex 9.875122e+00 3.000000e+00 1.365942e+01
      endloop
   endfacet
   facet normal 0.000000e+00 1.000000e+00 0.000000e+00
      outer loop
         vertex 9.875122e+00 3.000000e+00 1.365942e+01
         vertex 1.130388e+01 3.000000e+00 4.723413e+00
         vertex 1.100000e+01 3.000000e+00 4.749999e+00
      endloop
   endfacet
   facet normal 0.000000e+00 1.000000e+00 0.000000e+00
      outer loop
         vertex 9.875122e+00 3.000000e+00 1.365942e+01
         vertex 1.100000e+01 3.000000e+00 4.749999e+00
         vertex 9.659422e+00 3.000000e+00 1.387512e+01
      endloop
   endfacet
   facet normal 0.000000e+00 1.000000e+00 0.000000e+00
      outer loop
         vertex 9.659422e+00 3.000000e+00 1.387512e+01
         vertex 1.100000e+01 3.000000e+00 4.749999e+00
         vertex 9.484455e+00 3.000000e+00 1.412500e+01
      endloop
   endfacet
   facet normal -0.000000e+00 1.000000e+00 -0.000000e+00
      outer loop
         vertex 1.264446e+01 3.000000e+00 3.598535e+00
         vertex 1.012500e+01 3.000000e+00 1.348446e+01
         vertex 1.272341e+01 3.000000e+00 3.303884e+00
      endloop
   endfacet
   facet normal 0.000000e+00 1.000000e+00 0.000000e+00
      outer loop
         vertex 1.272341e+01 3.000000e+00 3.303884e+00
         vertex 1.012500e+01 3.000000e+00 1.348446e+01
         vertex 1.040146e+01 3.000000e+00 1.335554e+01
      endloop
   endfacet
   facet normal 0.000000e+00 1.000000e+00 0.000000e+00
      outer loop
         vertex 1.272341e+01 3.000000e+00 3.303884e+00
         vertex 1.040146e+01 3.000000e+00 1.335554e+01
         vertex 1.069612e+01 3.000000e+00 1.327659e+01
      endloop
   endfacet
   facet normal -0.000000e+00 1.000000e+00 0.000000e+00
      outer loop
         vertex 1.264446e+01 3.000000e+00 2.401464e+00
         vertex 1.272341e+01 3.000000e+00 2.696116e+00
         vertex 2.000000e+01 3.000000e+00 0.000000e+00
      endloop
   endfacet
   facet normal 0.000000e+00 1.000000e+00 0.000000e+00
      outer loop
         vertex 2.000000e+01 3.000000e+00 0.000000e+00
         vertex 1.272341e+01 3.000000e+00 2.696116e+00
         vertex 1.275000e+01 3.000000e+00 3.000000e+00
      endloop
   endfacet
   facet normal 0.000000e+00 1.000000e+00 0.000000e+00
      outer loop
         vertex 2.000000e+01 3.000000e+00 0.000000e+00
         vertex 1.275000e+01 3.000000e+00 3.000000e+00
         vertex 1.272341e+01 3.000000e+00 3.303884e+00
      endloop
   endfacet
   facet normal -0.000000e+00 1.000000e+00 0.000000e+00
      outer loop
         vertex 1.100000e+01 3.000000e+00 1.325000e+01
         vertex 1.130388e+01 3.000000e+00 1.327659e+01
         vertex 1.272341e+01 3.000000e+00 3.303884e+00
      endloop
   endfacet
   facet normal 0.000000e+00 1.000000e+00 0.000000e+00
      outer loop
         vertex 1.272341e+01 3.000000e+00 3.303884e+00
         vertex 1.130388e+01 3.000000e+00 1.327659e+01
         vertex 1.159854e+01 3.000000e+00 1.335554e+01
      endloop
   endfacet
   facet normal -0.000000e+00 1.000000e+00 -0.000000e+00
      outer loop
         vertex 1.272341e+01 3.000000e+00 3.303884e+00
         vertex 1.159854e+01 3.000000e+00 1.335554e+01
         vertex 2.000000e+01 3.000000e+00 0.000000e+00
      endloop
   endfacet
   facet normal 0.000000e+00 1.000000e+00 0.000000e+00
      outer loop
         vertex 2.000000e+01 3.000000e+00 0.000000e+00
         vertex 1.159854e+01 3.000000e+00 1.335554e+01
         vertex 1.187500e+01 3.000000e+00 1.348446e+01
      endloop
   endfacet
   facet normal 0.000000e+00 1.000000e+00 -0.000000e+00
      outer loop
         vertex 2.000000e+01 3.000000e+00 0.000000e+00
         vertex 1.187500e+01 3.000000e+00 1.348446e+01
         vertex 2.200000e+01 3.000000e+00 1.999999e+00
      endloop
   endfacet
   facet normal 0.000000e+00 1.000000e+00 0.000000e+00
      outer loop
         vertex 2.200000e+01 3.000000e+00 1.999999e+00
         vertex 1.187500e+01 3.000000e+00 1.348446e+01
         vertex 1.212488e+01 3.000000e+00 1.365942e+01
      endloop
   endfacet
   facet normal 0.000000e+00 1.000000e+00 0.000000e+00
      outer loop
         vertex 2.200000e+01 3.000000e+00 1.999999e+00
         vertex 1.212488e+01 3.000000e+00 1.365942e+01
         vertex 1.234058e+01 3.000000e+00 1.387512e+01
      endloop
   endfacet
   facet normal 0.000000e+00 -1.000000e+00 0.000000e+00
      outer loop
         vertex 1.012500e+01 0.000000e+00 1.651554e+01
         vertex 1.040146e+01 0.000000e+00 1.664446e+01
         vertex 2.000000e+00 0.000000e+00 1.800000e+01
      endloop
   endfacet
   facet normal 0.000000e+00 -1.000000e+00 -0.000000e+00
      outer loop
         vertex 1.251554e+01 0.000000e+00 1.412500e+01
         vertex 1.040146e+01 0.000000e+00 4.644462e+00
         vertex 1.264446e+01 0.000000e+00 1.440146e+01
      endloop
   endfacet
   facet normal 0.000000e+00 -1.000000e+00 -0.000000e+00
      outer loop
         vertex 1.264446e+01 0.000000e+00 1.440146e+01
         vertex 1.040146e+01 0.000000e+00 4.644462e+00
         vertex 1.272341e+01 0.000000e+00 1.469612e+01
      endloop
   endfacet
   facet normal 0.000000e+00 -1.000000e+00 0.000000e+00
      outer loop
         vertex 1.251554e+01 0.000000e+00 1.412500e+01
         vertex 1.234058e+01 0.000000e+00 1.387512e+01
         vertex 1.040146e+01 0.000000e+00 4.644462e+00
      endloop
   endfacet
   facet normal 0.000000e+00 -1.000000e+00 0.000000e+00
      outer loop
         vertex 1.040146e+01 0.000000e+00 4.644462e+00
         vertex 1.234058e+01 0.000000e+00 1.387512e+01
         vertex 1.212488e+01 0.000000e+00 1.365942e+01
      endloop
   endfacet
   facet normal 0.000000e+00 -1.000000e+00 0.000000e+00
      outer loop
         vertex 1.040146e+01 0.000000e+00 4.644462e+00
         vertex 1.212488e+01 0.000000e+00 1.365942e+01
         vertex 1.187500e+01 0.000000e+00 1.348446e+01
      endloop
   endfacet
   facet normal 0.000000e+00 -1.000000e+00 0.000000e+00
      outer loop
         vertex 9.276586e+00 0.000000e+00 3.303884e+00
         vertex 9.355538e+00 0.000000e+00 3.598535e+00
         vertex 1.100000e+01 0.000000e+00 1.325000e+01
      endloop
   endfacet
   facet normal 0.000000e+00 -1.000000e+00 0.000000e+00
      outer loop
         vertex 1.100000e+01 0.000000e+00 1.325000e+01
         vertex 9.355538e+00 0.000000e+00 3.598535e+00
         vertex 9.484455e+00 0.000000e+00 3.874999e+00
      endloop
   endfacet
   facet normal 0.000000e+00 -1.000000e+00 0.000000e+00
      outer loop
         vertex 1.100000e+01 0.000000e+00 1.325000e+01
         vertex 9.484455e+00 0.000000e+00 3.874999e+00
         vertex 9.659422e+00 0.000000e+00 4.124878e+00
      endloop
   endfacet
   facet normal -0.000000e+00 -1.000000e+00 0.000000e+00
      outer loop
         vertex 1.040146e+01 0.000000e+00 1.355538e+00
         vertex 1.012500e+01 0.000000e+00 1.484455e+00
         vertex 2.000000e+00 0.000000e+00 0.000000e+00
      endloop
   endfacet
   facet normal 0.000000e+00 -1.000000e+00 0.000000e+00
      outer loop
         vertex 2.000000e+00 0.000000e+00 0.000000e+00
         vertex 1.012500e+01 0.000000e+00 1.484455e+00
         vertex 9.875122e+00 0.000000e+00 1.659422e+00
      endloop
   endfacet
   facet normal 0.000000e+00 -1.000000e+00 0.000000e+00
      outer loop
         vertex 1.187500e+01 0.000000e+00 1.348446e+01
         vertex 1.159854e+01 0.000000e+00 1.335554e+01
         vertex 1.040146e+01 0.000000e+00 4.644462e+00
      endloop
   endfacet
   facet normal 0.000000e+00 -1.000000e+00 0.000000e+00
      outer loop
         vertex 1.040146e+01 0.000000e+00 4.644462e+00
         vertex 1.159854e+01 0.000000e+00 1.335554e+01
         vertex 1.130388e+01 0.000000e+00 1.327659e+01
      endloop
   endfacet
   facet normal -0.000000e+00 -1.000000e+00 0.000000e+00
      outer loop
         vertex 1.040146e+01 0.000000e+00 4.644462e+00
         vertex 1.130388e+01 0.000000e+00 1.327659e+01
         vertex 1.012500e+01 0.000000e+00 4.515544e+00
      endloop
   endfacet
   facet normal 0.000000e+00 -1.000000e+00 0.000000e+00
      outer loop
         vertex 1.012500e+01 0.000000e+00 4.515544e+00
         vertex 1.130388e+01 0.000000e+00 1.327659e+01
         vertex 1.100000e+01 0.000000e+00 1.325000e+01
      endloop
   endfacet
   facet normal -0.000000e+00 -1.000000e+00 0.000000e+00
      outer loop
         vertex 1.012500e+01 0.000000e+00 4.515544e+00
         vertex 1.100000e+01 0.000000e+00 1.325000e+01
         vertex 9.875122e+00 0.000000e+00 4.340577e+00
      endloop
   endfacet
   facet normal -0.000000e+00 -1.000000e+00 0.000000e+00
      outer loop
         vertex 9.875122e+00 0.000000e+00 4.340577e+00
         vertex 1.100000e+01 0.000000e+00 1.325000e+01
         vertex 9.659422e+00 0.000000e+00 4.124878e+00
      endloop
   endfacet
   facet normal 0.000000e+00 -1.000000e+00 0.000000e+00
      outer loop
         vertex 1.040146e+01 0.000000e+00 1.664446e+01
         vertex 1.069612e+01 0.000000e+00 1.672341e+01
         vertex 2.000000e+00 0.000000e+00 1.800000e+01
      endloop
   endfacet
   facet normal 0.000000e+00 -1.000000e+00 0.000000e+00
      outer loop
         vertex 2.000000e+00 0.000000e+00 1.800000e+01
         vertex 1.069612e+01 0.000000e+00 1.672341e+01
         vertex 1.100000e+01 0.000000e+00 1.675000e+01
      endloop
   endfacet
   facet normal 0.000000e+00 -1.000000e+00 0.000000e+00
      outer loop
         vertex 2.000000e+00 0.000000e+00 1.800000e+01
         vertex 1.100000e+01 0.000000e+00 1.675000e+01
         vertex 2.000000e+01 0.000000e+00 1.800000e+01
      endloop
   endfacet
   facet normal 0.000000e+00 -1.000000e+00 0.000000e+00
      outer loop
         vertex 2.000000e+01 0.000000e+00 1.800000e+01
         vertex 1.100000e+01 0.000000e+00 1.675000e+01
         vertex 1.130388e+01 0.000000e+00 1.672341e+01
      endloop
   endfacet
   facet normal 0.000000e+00 -1.000000e+00 0.000000e+00
      outer loop
         vertex 2.000000e+01 0.000000e+00 1.800000e+01
         vertex 1.130388e+01 0.000000e+00 1.672341e+01
         vertex 1.159854e+01 0.000000e+00 1.664446e+01
      endloop
   endfacet
   facet normal 0.000000e+00 -1.000000e+00 0.000000e+00
      outer loop
         vertex 1.159854e+01 0.000000e+00 1.664446e+01
         vertex 1.187500e+01 0.000000e+00 1.651554e+01
         vertex 2.000000e+01 0.000000e+00 1.800000e+01
      endloop
   endfacet
   facet normal 0.000000e+00 -1.000000e+00 0.000000e+00
      outer loop
         vertex 2.000000e+01 0.000000e+00 1.800000e+01
         vertex 1.187500e+01 0.000000e+00 1.651554e+01
         vertex 1.212488e+01 0.000000e+00 1.634058e+01
      endloop
   endfacet
   facet normal 0.000000e+00 -1.000000e+00 0.000000e+00
      outer loop
         vertex 2.000000e+01 0.000000e+00 1.800000e+01
         vertex 1.212488e+01 0.000000e+00 1.634058e+01
         vertex 1.234058e+01 0.000000e+00 1.612488e+01
      endloop
   endfacet
   facet normal -0.000000e+00 -1.000000e+00 0.000000e+00
      outer loop
         vertex 9.875122e+00 0.000000e+00 1.659422e+00
         vertex 9.659422e+00 0.000000e+00 1.875121e+00
         vertex 2.000000e+00 0.000000e+00 0.000000e+00
      endloop
   endfacet
   facet normal 0.000000e+00 -1.000000e+00 0.000000e+00
      outer loop
         vertex 2.000000e+00 0.000000e+00 0.000000e+00
         vertex 9.659422e+00 0.000000e+00 1.875121e+00
         vertex 9.484455e+00 0.000000e+00 2.125000e+00
      endloop
   endfacet
   facet normal 0.000000e+00 -1.000000e+00 0.000000e+00
      outer loop
         vertex 2.000000e+00 0.000000e+00 0.000000e+00
         vertex 9.484455e+00 0.000000e+00 2.125000e+00
         vertex 9.355538e+00 0.000000e+00 2.401464e+00
      endloop
   endfacet
   facet normal 0.000000e+00 -1.000000e+00 0.000000e+00
      outer loop
         vertex 1.234058e+01 0.000000e+00 1.612488e+01
         vertex 1.251554e+01 0.000000e+00 1.587500e+01
         vertex 2.000000e+01 0.000000e+00 1.800000e+01
      endloop
   endfacet
   facet normal 0.000000e+00 -1.000000e+00 0.000000e+00
      outer loop
         vertex 2.000000e+01 0.000000e+00 1.800000e+01
         vertex 1.251554e+01 0.000000e+00 1.587500e+01
         vertex 1.264446e+01 0.000000e+00 1.559854e+01
      endloop
   endfacet
   facet normal 0.000000e+00 -1.000000e+00 -0.000000e+00
      outer loop
         vertex 2.000000e+01 0.000000e+00 1.800000e+01
         vertex 1.264446e+01 0.000000e+00 1.559854e+01
         vertex 2.200000e+01 0.000000e+00 1.600000e+01
      endloop
   endfacet
   facet normal 0.000000e+00 -1.000000e+00 0.000000e+00
      outer loop
         vertex 1.040146e+01 0.000000e+00 4.644462e+00
         vertex 1.069612e+01 0.000000e+00 4.723413e+00
         vertex 1.272341e+01 0.000000e+00 1.469612e+01
      endloop
   endfacet
   facet normal 0.000000e+00 -1.000000e+00 0.000000e+00
      outer loop
         vertex 1.272341e+01 0.000000e+00 1.469612e+01
         vertex 1.069612e+01 0.000000e+00 4.723413e+00
         vertex 1.100000e+01 0.000000e+00 4.749999e+00
      endloop
   endfacet
   facet normal 0.000000e+00 -1.000000e+00 0.000000e+00
      outer loop
         vertex 1.272341e+01 0.000000e+00 1.469612e+01
         vertex 1.100000e+01 0.000000e+00 4.749999e+00
         vertex 1.130388e+01 0.000000e+00 4.723413e+00
      endloop
   endfacet
   facet normal 0.000000e+00 -1.000000e+00 0.000000e+00
      outer loop
         vertex 2.200000e+01 0.000000e+00 1.999999e+00
         vertex 1.264446e+01 0.000000e+00 3.598535e+00
         vertex 1.272341e+01 0.000000e+00 3.303884e+00
      endloop
   endfacet
   facet normal 0.000000e+00 -1.000000e+00 0.000000e+00
      outer loop
         vertex 2.000000e+01 0.000000e+00 0.000000e+00
         vertex 1.251554e+01 0.000000e+00 2.125000e+00
         vertex 1.234058e+01 0.000000e+00 1.875121e+00
      endloop
   endfacet
   facet normal 0.000000e+00 -1.000000e+00 -0.000000e+00
      outer loop
         vertex 1.234058e+01 0.000000e+00 1.875121e+00
         vertex 1.212488e+01 0.000000e+00 1.659422e+00
         vertex 2.000000e+01 0.000000e+00 0.000000e+00
      endloop
   endfacet
   facet normal 0.000000e+00 -1.000000e+00 0.000000e+00
      outer loop
         vertex 2.000000e+01 0.000000e+00 0.000000e+00
         vertex 1.212488e+01 0.000000e+00 1.659422e+00
         vertex 1.187500e+01 0.000000e+00 1.484455e+00
      endloop
   endfacet
   facet normal 0.000000e+00 -1.000000e+00 0.000000e+00
      outer loop
         vertex 2.000000e+01 0.000000e+00 0.000000e+00
         vertex 1.187500e+01 0.000000e+00 1.484455e+00
         vertex 1.159854e+01 0.000000e+00 1.355538e+00
      endloop
   endfacet
   facet normal 0.000000e+00 -1.000000e+00 -0.000000e+00
      outer loop
         vertex 1.159854e+01 0.000000e+00 1.355538e+00
         vertex 1.130388e+01 0.000000e+00 1.276586e+00
         vertex 2.000000e+01 0.000000e+00 0.000000e+00
      endloop
   endfacet
   facet normal 0.000000e+00 -1.000000e+00 0.000000e+00
      outer loop
         vertex 2.000000e+01 0.000000e+00 0.000000e+00
         vertex 1.130388e+01 0.000000e+00 1.276586e+00
         vertex 1.100000e+01 0.000000e+00 1.250000e+00
      endloop
   endfacet
   facet normal 0.000000e+00 -1.000000e+00 0.000000e+00
      outer loop
         vertex 2.000000e+01 0.000000e+00 0.000000e+00
         vertex 1.100000e+01 0.000000e+00 1.250000e+00
         vertex 2.000000e+00 0.000000e+00 0.000000e+00
      endloop
   endfacet
   facet normal 0.000000e+00 -1.000000e+00 0.000000e+00
      outer loop
         vertex 2.000000e+00 0.000000e+00 0.000000e+00
         vertex 1.100000e+01 0.000000e+00 1.250000e+00
         vertex 1.069612e+01 0.000000e+00 1.276586e+00
      endloop
   endfacet
   facet normal 0.000000e+00 -1.000000e+00 0.000000e+00
      outer loop
         vertex 2.000000e+00 0.000000e+00 0.000000e+00
         vertex 1.069612e+01 0.000000e+00 1.276586e+00
         vertex 1.040146e+01 0.000000e+00 1.355538e+00
      endloop
   endfacet
   facet normal 0.000000e+00 -1.000000e+00 0.000000e+00
      outer loop
         vertex 9.484455e+00 0.000000e+00 1.587500e+01
         vertex 9.659422e+00 0.000000e+00 1.612488e+01
         vertex 2.000000e+00 0.000000e+00 1.800000e+01
      endloop
   endfacet
   facet normal 0.000000e+00 -1.000000e+00 0.000000e+00
      outer loop
         vertex 2.000000e+00 0.000000e+00 1.800000e+01
         vertex 9.659422e+00 0.000000e+00 1.612488e+01
         vertex 9.875122e+00 0.000000e+00 1.634058e+01
      endloop
   endfacet
   facet normal 0.000000e+00 -1.000000e+00 0.000000e+00
      outer loop
         vertex 2.000000e+00 0.000000e+00 1.800000e+01
         vertex 9.875122e+00 0.000000e+00 1.634058e+01
         vertex 1.012500e+01 0.000000e+00 1.651554e+01
      endloop
   endfacet
   facet normal -0.000000e+00 -1.000000e+00 0.000000e+00
      outer loop
         vertex 9.355538e+00 0.000000e+00 2.401464e+00
         vertex 9.276586e+00 0.000000e+00 2.696116e+00
         vertex 2.000000e+00 0.000000e+00 0.000000e+00
      endloop
   endfacet
   facet normal 0.000000e+00 -1.000000e+00 0.000000e+00
      outer loop
         vertex 2.000000e+00 0.000000e+00 0.000000e+00
         vertex 9.276586e+00 0.000000e+00 2.696116e+00
         vertex 9.250000e+00 0.000000e+00 3.000000e+00
      endloop
   endfacet
   facet normal 0.000000e+00 -1.000000e+00 0.000000e+00
      outer loop
         vertex 2.000000e+00 0.000000e+00 0.000000e+00
         vertex 9.250000e+00 0.000000e+00 3.000000e+00
         vertex 9.276586e+00 0.000000e+00 3.303884e+00
      endloop
   endfacet
   facet normal 0.000000e+00 -1.000000e+00 0.000000e+00
      outer loop
         vertex 1.264446e+01 0.000000e+00 1.559854e+01
         vertex 1.272341e+01 0.000000e+00 1.530388e+01
         vertex 2.200000e+01 0.000000e+00 1.600000e+01
      endloop
   endfacet
   facet normal 0.000000e+00 -1.000000e+00 0.000000e+00
      outer loop
         vertex 2.200000e+01 0.000000e+00 1.600000e+01
         vertex 1.272341e+01 0.000000e+00 1.530388e+01
         vertex 1.275000e+01 0.000000e+00 1.500000e+01
      endloop
   endfacet
   facet normal 0.000000e+00 -1.000000e+00 0.000000e+00
      outer loop
         vertex 2.200000e+01 0.000000e+00 1.600000e+01
         vertex 1.275000e+01 0.000000e+00 1.500000e+01
         vertex 1.272341e+01 0.000000e+00 1.469612e+01
      endloop
   endfacet
   facet normal 0.000000e+00 -1.000000e+00 0.000000e+00
      outer loop
         vertex 1.264446e+01 0.000000e+00 3.598535e+00
         vertex 2.200000e+01 0.000000e+00 1.999999e+00
         vertex 1.251554e+01 0.000000e+00 3.874999e+00
      endloop
   endfacet
   facet normal 0.000000e+00 -1.000000e+00 0.000000e+00
      outer loop
         vertex 1.251554e+01 0.000000e+00 3.874999e+00
         vertex 2.200000e+01 0.000000e+00 1.999999e+00
         vertex 2.200000e+01 0.000000e+00 1.600000e+01
      endloop
   endfacet
   facet normal 0.000000e+00 -1.000000e+00 0.000000e+00
      outer loop
         vertex 1.251554e+01 0.000000e+00 3.874999e+00
         vertex 2.200000e+01 0.000000e+00 1.600000e+01
         vertex 1.234058e+01 0.000000e+00 4.124878e+00
      endloop
   endfacet
   facet normal 0.000000e+00 -1.000000e+00 0.000000e+00
      outer loop
         vertex 1.272341e+01 0.000000e+00 3.303884e+00
         vertex 1.275000e+01 0.000000e+00 3.000000e+00
         vertex 2.200000e+01 0.000000e+00 1.999999e+00
      endloop
   endfacet
   facet normal 0.000000e+00 -1.000000e+00 0.000000e+00
      outer loop
         vertex 2.200000e+01 0.000000e+00 1.999999e+00
         vertex 1.275000e+01 0.000000e+00 3.000000e+00
         vertex 1.272341e+01 0.000000e+00 2.696116e+00
      endloop
   endfacet
   facet normal -0.000000e+00 -1.000000e+00 0.000000e+00
      outer loop
         vertex 2.200000e+01 0.000000e+00 1.999999e+00
         vertex 1.272341e+01 0.000000e+00 2.696116e+00
         vertex 2.000000e+01 0.000000e+00 0.000000e+00
      endloop
   endfacet
   facet normal 0.000000e+00 -1.000000e+00 0.000000e+00
      outer loop
         vertex 2.000000e+01 0.000000e+00 0.000000e+00
         vertex 1.272341e+01 0.000000e+00 2.696116e+00
         vertex 1.264446e+01 0.000000e+00 2.401464e+00
      endloop
   endfacet
   facet normal 0.000000e+00 -1.000000e+00 0.000000e+00
      outer loop
         vertex 2.000000e+01 0.000000e+00 0.000000e+00
         vertex 1.264446e+01 0.000000e+00 2.401464e+00
         vertex 1.251554e+01 0.000000e+00 2.125000e+00
      endloop
   endfacet
   facet normal 0.000000e+00 -1.000000e+00 -0.000000e+00
      outer loop
         vertex 9.875122e+00 0.000000e+00 1.365942e+01
         vertex 0.000000e+00 0.000000e+00 1.999999e+00
         vertex 1.012500e+01 0.000000e+00 1.348446e+01
      endloop
   endfacet
   facet normal 0.000000e+00 -1.000000e+00 0.000000e+00
      outer loop
         vertex 1.012500e+01 0.000000e+00 1.348446e+01
         vertex 0.000000e+00 0.000000e+00 1.999999e+00
         vertex 2.000000e+00 0.000000e+00 0.000000e+00
      endloop
   endfacet
   facet normal 0.000000e+00 -1.000000e+00 -0.000000e+00
      outer loop
         vertex 1.012500e+01 0.000000e+00 1.348446e+01
         vertex 2.000000e+00 0.000000e+00 0.000000e+00
         vertex 1.040146e+01 0.000000e+00 1.335554e+01
      endloop
   endfacet
   facet normal 0.000000e+00 -1.000000e+00 0.000000e+00
      outer loop
         vertex 1.040146e+01 0.000000e+00 1.335554e+01
         vertex 2.000000e+00 0.000000e+00 0.000000e+00
         vertex 9.276586e+00 0.000000e+00 3.303884e+00
      endloop
   endfacet
   facet normal 0.000000e+00 -1.000000e+00 -0.000000e+00
      outer loop
         vertex 1.040146e+01 0.000000e+00 1.335554e+01
         vertex 9.276586e+00 0.000000e+00 3.303884e+00
         vertex 1.069612e+01 0.000000e+00 1.327659e+01
      endloop
   endfacet
   facet normal 0.000000e+00 -1.000000e+00 -0.000000e+00
      outer loop
         vertex 1.069612e+01 0.000000e+00 1.327659e+01
         vertex 9.276586e+00 0.000000e+00 3.303884e+00
         vertex 1.100000e+01 0.000000e+00 1.325000e+01
      endloop
   endfacet
   facet normal -0.000000e+00 -1.000000e+00 0.000000e+00
      outer loop
         vertex 9.875122e+00 0.000000e+00 1.365942e+01
         vertex 9.659422e+00 0.000000e+00 1.387512e+01
         vertex 0.000000e+00 0.000000e+00 1.999999e+00
      endloop
   endfacet
   facet normal 0.000000e+00 -1.000000e+00 0.000000e+00
      outer loop
         vertex 0.000000e+00 0.000000e+00 1.999999e+00
         vertex 9.659422e+00 0.000000e+00 1.387512e+01
         vertex 9.484455e+00 0.000000e+00 1.412500e+01
      endloop
   endfacet
   facet normal 0.000000e+00 -1.000000e+00 0.000000e+00
      outer loop
         vertex 0.000000e+00 0.000000e+00 1.999999e+00
         vertex 9.484455e+00 0.000000e+00 1.412500e+01
         vertex 0.000000e+00 0.000000e+00 1.600000e+01
      endloop
   endfacet
   facet normal 0.000000e+00 -1.000000e+00 0.000000e+00
      outer loop
         vertex 0.000000e+00 0.000000e+00 1.600000e+01
         vertex 9.484455e+00 0.000000e+00 1.412500e+01
         vertex 9.355538e+00 0.000000e+00 1.440146e+01
      endloop
   endfacet
   facet normal 0.000000e+00 -1.000000e+00 0.000000e+00
      outer loop
         vertex 0.000000e+00 0.000000e+00 1.600000e+01
         vertex 9.355538e+00 0.000000e+00 1.440146e+01
         vertex 9.276586e+00 0.000000e+00 1.469612e+01
      endloop
   endfacet
   facet normal 0.000000e+00 -1.000000e+00 0.000000e+00
      outer loop
         vertex 1.130388e+01 0.000000e+00 4.723413e+00
         vertex 1.159854e+01 0.000000e+00 4.644462e+00
         vertex 1.272341e+01 0.000000e+00 1.469612e+01
      endloop
   endfacet
   facet normal 0.000000e+00 -1.000000e+00 0.000000e+00
      outer loop
         vertex 1.272341e+01 0.000000e+00 1.469612e+01
         vertex 1.159854e+01 0.000000e+00 4.644462e+00
         vertex 1.187500e+01 0.000000e+00 4.515544e+00
      endloop
   endfacet
   facet normal 0.000000e+00 -1.000000e+00 -0.000000e+00
      outer loop
         vertex 1.272341e+01 0.000000e+00 1.469612e+01
         vertex 1.187500e+01 0.000000e+00 4.515544e+00
         vertex 2.200000e+01 0.000000e+00 1.600000e+01
      endloop
   endfacet
   facet normal 0.000000e+00 -1.000000e+00 0.000000e+00
      outer loop
         vertex 2.200000e+01 0.000000e+00 1.600000e+01
         vertex 1.187500e+01 0.000000e+00 4.515544e+00
         vertex 1.212488e+01 0.000000e+00 4.340577e+00
      endloop
   endfacet
   facet normal 0.000000e+00 -1.000000e+00 0.000000e+00
      outer loop
         vertex 2.200000e+01 0.000000e+00 1.600000e+01
         vertex 1.212488e+01 0.000000e+00 4.340577e+00
         vertex 1.234058e+01 0.000000e+00 4.124878e+00
      endloop
   endfacet
   facet normal 0.000000e+00 -1.000000e+00 0.000000e+00
      outer loop
         vertex 9.276586e+00 0.000000e+00 1.469612e+01
         vertex 9.250000e+00 0.000000e+00 1.500000e+01
         vertex 0.000000e+00 0.000000e+00 1.600000e+01
      endloop
   endfacet
   facet normal 0.000000e+00 -1.000000e+00 0.000000e+00
      outer loop
         vertex 0.000000e+00 0.000000e+00 1.600000e+01
         vertex 9.250000e+00 0.000000e+00 1.500000e+01
         vertex 9.276586e+00 0.000000e+00 1.530388e+01
      endloop
   endfacet
   facet normal 0.000000e+00 -1.000000e+00 0.000000e+00
      outer loop
         vertex 0.000000e+00 0.000000e+00 1.600000e+01
         vertex 9.276586e+00 0.000000e+00 1.530388e+01
         vertex 2.000000e+00 0.000000e+00 1.800000e+01
      endloop
   endfacet
   facet normal 0.000000e+00 -1.000000e+00 0.000000e+00
      outer loop
         vertex 2.000000e+00 0.000000e+00 1.800000e+01
         vertex 9.276586e+00 0.000000e+00 1.530388e+01
         vertex 9.355538e+00 0.000000e+00 1.559854e+01
      endloop
   endfacet
   facet normal 0.000000e+00 -1.000000e+00 0.000000e+00
      outer loop
         vertex 2.000000e+00 0.000000e+00 1.800000e+01
         vertex 9.355538e+00 0.000000e+00 1.559854e+01
         vertex 9.484455e+00 0.000000e+00 1.587500e+01
      endloop
   endfacet
   facet normal -8.715434e-02 0.000000e+00 9.961948e-01
      outer loop
         vertex 1.100000e+01 3.000000e+00 1.325000e+01
         vertex 1.100000e+01 8.673617e-16 1.325000e+01
         vertex 1.130388e+01 3.000000e+00 1.327659e+01
      endloop
   endfacet
   facet normal -8.715434e-02 0.000000e+00 9.961948e-01
      outer loop
         vertex 1.130388e+01 3.000000e+00 1.327659e+01
         vertex 1.100000e+01 8.673617e-16 1.325000e+01
         vertex 1.130388e+01 8.673617e-16 1.327659e+01
      endloop
   endfacet
   facet normal -2.588190e-01 0.000000e+00 9.659258e-01
      outer loop
         vertex 1.130388e+01 3.000000e+00 1.327659e+01
         vertex 1.130388e+01 8.673617e-16 1.327659e+01
         vertex 1.159854e+01 3.000000e+00 1.335554e+01
      endloop
   endfacet
   facet normal -2.588190e-01 0.000000e+00 9.659258e-01
      outer loop
         vertex 1.159854e+01 3.000000e+00 1.335554e+01
         vertex 1.130388e+01 8.673617e-16 1.327659e+01
         vertex 1.159854e+01 8.673617e-16 1.335554e+01
      endloop
   endfacet
   facet normal -4.226188e-01 0.000000e+00 9.063075e-01
      outer loop
         vertex 1.159854e+01 3.000000e+00 1.335554e+01
         vertex 1.159854e+01 8.673617e-16 1.335554e+01
         vertex 1.187500e+01 3.000000e+00 1.348446e+01
      endloop
   endfacet
   facet normal -4.226188e-01 0.000000e+00 9.063075e-01
      outer loop
         vertex 1.187500e+01 3.000000e+00 1.348446e+01
         vertex 1.159854e+01 8.673617e-16 1.335554e+01
         vertex 1.187500e+01 8.673617e-16 1.348446e+01
      endloop
   endfacet
   facet normal -5.735764e-01 0.000000e+00 8.191521e-01
      outer loop
         vertex 1.187500e+01 3.000000e+00 1.348446e+01
         vertex 1.187500e+01 8.673617e-16 1.348446e+01
         vertex 1.212488e+01 3.000000e+00 1.365942e+01
      endloop
   endfacet
   facet normal -5.735764e-01 0.000000e+00 8.191521e-01
      outer loop
         vertex 1.212488e+01 3.000000e+00 1.365942e+01
         vertex 1.187500e+01 8.673617e-16 1.348446e+01
         vertex 1.212488e+01 8.673617e-16 1.365942e+01
      endloop
   endfacet
   facet normal -7.071068e-01 0.000000e+00 7.071068e-01
      outer loop
         vertex 1.212488e+01 3.000000e+00 1.365942e+01
         vertex 1.212488e+01 8.673617e-16 1.365942e+01
         vertex 1.234058e+01 3.000000e+00 1.387512e+01
      endloop
   endfacet
   facet normal -7.071068e-01 0.000000e+00 7.071068e-01
      outer loop
         vertex 1.234058e+01 3.000000e+00 1.387512e+01
         vertex 1.212488e+01 8.673617e-16 1.365942e+01
         vertex 1.234058e+01 8.673617e-16 1.387512e+01
      endloop
   endfacet
   facet normal -8.191521e-01 0.000000e+00 5.735763e-01
      outer loop
         vertex 1.234058e+01 3.000000e+00 1.387512e+01
         vertex 1.234058e+01 8.673617e-16 1.387512e+01
         vertex 1.251554e+01 3.000000e+00 1.412500e+01
      endloop
   endfacet
   facet normal -8.191521e-01 0.000000e+00 5.735763e-01
      outer loop
         vertex 1.251554e+01 3.000000e+00 1.412500e+01
         vertex 1.234058e+01 8.673617e-16 1.387512e+01
         vertex 1.251554e+01 8.673617e-16 1.412500e+01
      endloop
   endfacet
   facet normal -9.063076e-01 0.000000e+00 4.226186e-01
      outer loop
         vertex 1.251554e+01 3.000000e+00 1.412500e+01
         vertex 1.251554e+01 8.673617e-16 1.412500e+01
         vertex 1.264446e+01 3.000000e+00 1.440146e+01
      endloop
   endfacet
   facet normal -9.063076e-01 0.000000e+00 4.226186e-01
      outer loop
         vertex 1.264446e+01 3.000000e+00 1.440146e+01
         vertex 1.251554e+01 8.673617e-16 1.412500e+01
         vertex 1.264446e+01 8.673617e-16 1.440146e+01
      endloop
   endfacet
   facet normal -9.659258e-01 0.000000e+00 2.588191e-01
      outer loop
         vertex 1.264446e+01 3.000000e+00 1.440146e+01
         vertex 1.264446e+01 8.673617e-16 1.440146e+01
         vertex 1.272341e+01 3.000000e+00 1.469612e+01
      endloop
   endfacet
   facet normal -9.659258e-01 0.000000e+00 2.588191e-01
      outer loop
         vertex 1.272341e+01 3.000000e+00 1.469612e+01
         vertex 1.264446e+01 8.673617e-16 1.440146e+01
         vertex 1.272341e+01 8.673617e-16 1.469612e+01
      endloop
   endfacet
   facet normal -9.961947e-01 0.000000e+00 8.715580e-02
      outer loop
         vertex 1.272341e+01 3.000000e+00 1.469612e+01
         vertex 1.272341e+01 8.673617e-16 1.469612e+01
         vertex 1.275000e+01 3.000000e+00 1.500000e+01
      endloop
   endfacet
   facet normal -9.961947e-01 0.000000e+00 8.715580e-02
      outer loop
         vertex 1.275000e+01 3.000000e+00 1.500000e+01
         vertex 1.272341e+01 8.673617e-16 1.469612e+01
         vertex 1.275000e+01 8.673617e-16 1.500000e+01
      endloop
   endfacet
   facet normal -9.961947e-01 -0.000000e+00 -8.715593e-02
      outer loop
         vertex 1.275000e+01 3.000000e+00 1.500000e+01
         vertex 1.275000e+01 8.673617e-16 1.500000e+01
         vertex 1.272341e+01 3.000000e+00 1.530388e+01
      endloop
   endfacet
   facet normal -9.961947e-01 -0.000000e+00 -8.715593e-02
      outer loop
         vertex 1.272341e+01 3.000000e+00 1.530388e+01
         vertex 1.275000e+01 8.673617e-16 1.500000e+01
         vertex 1.272341e+01 8.673617e-16 1.530388e+01
      endloop
   endfacet
   facet normal -9.659259e-01 -0.000000e+00 -2.588187e-01
      outer loop
         vertex 1.272341e+01 3.000000e+00 1.530388e+01
         vertex 1.272341e+01 8.673617e-16 1.530388e+01
         vertex 1.264446e+01 3.000000e+00 1.559854e+01
      endloop
   endfacet
   facet normal -9.659259e-01 -0.000000e+00 -2.588187e-01
      outer loop
         vertex 1.264446e+01 3.000000e+00 1.559854e+01
         vertex 1.272341e+01 8.673617e-16 1.530388e+01
         vertex 1.264446e+01 8.673617e-16 1.559854e+01
      endloop
   endfacet
   facet normal -9.063076e-01 -0.000000e+00 -4.226186e-01
      outer loop
         vertex 1.264446e+01 3.000000e+00 1.559854e+01
         vertex 1.264446e+01 8.673617e-16 1.559854e+01
         vertex 1.251554e+01 3.000000e+00 1.587500e+01
      endloop
   endfacet
   facet normal -9.063076e-01 -0.000000e+00 -4.226186e-01
      outer loop
         vertex 1.251554e+01 3.000000e+00 1.587500e+01
         vertex 1.264446e+01 8.673617e-16 1.559854e+01
         vertex 1.251554e+01 8.673617e-16 1.587500e+01
      endloop
   endfacet
   facet normal -8.191521e-01 -0.000000e+00 -5.735763e-01
      outer loop
         vertex 1.251554e+01 3.000000e+00 1.587500e+01
         vertex 1.251554e+01 8.673617e-16 1.587500e+01
         vertex 1.234058e+01 3.000000e+00 1.612488e+01
      endloop
   endfacet
   facet normal -8.191521e-01 -0.000000e+00 -5.735763e-01
      outer loop
         vertex 1.234058e+01 3.000000e+00 1.612488e+01
         vertex 1.251554e+01 8.673617e-16 1.587500e+01
         vertex 1.234058e+01 8.673617e-16 1.612488e+01
      endloop
   endfacet
   facet normal -7.071068e-01 -0.000000e+00 -7.071068e-01
      outer loop
         vertex 1.234058e+01 3.000000e+00 1.612488e+01
         vertex 1.234058e+01 8.673617e-16 1.612488e+01
         vertex 1.212488e+01 3.000000e+00 1.634058e+01
      endloop
   endfacet
   facet normal -7.071068e-01 -0.000000e+00 -7.071068e-01
      outer loop
         vertex 1.212488e+01 3.000000e+00 1.634058e+01
         vertex 1.234058e+01 8.673617e-16 1.612488e+01
         vertex 1.212488e+01 8.673617e-16 1.634058e+01
      endloop
   endfacet
   facet normal -5.735764e-01 -0.000000e+00 -8.191521e-01
      outer loop
         vertex 1.212488e+01 3.000000e+00 1.634058e+01
         vertex 1.212488e+01 8.673617e-16 1.634058e+01
         vertex 1.187500e+01 3.000000e+00 1.651554e+01
      endloop
   endfacet
   facet normal -5.735764e-01 -0.000000e+00 -8.191521e-01
      outer loop
         vertex 1.187500e+01 3.000000e+00 1.651554e+01
         vertex 1.212488e+01 8.673617e-16 1.634058e+01
         vertex 1.187500e+01 8.673617e-16 1.651554e+01
      endloop
   endfacet
   facet normal -4.226176e-01 -0.000000e+00 -9.063081e-01
      outer loop
         vertex 1.187500e+01 3.000000e+00 1.651554e+01
         vertex 1.187500e+01 8.673617e-16 1.651554e+01
         vertex 1.159854e+01 3.000000e+00 1.664446e+01
      endloop
   endfacet
   facet normal -4.226176e-01 -0.000000e+00 -9.063081e-01
      outer loop
         vertex 1.159854e+01 3.000000e+00 1.664446e+01
         vertex 1.187500e+01 8.673617e-16 1.651554e+01
         vertex 1.159854e+01 8.673617e-16 1.664446e+01
      endloop
   endfacet
   facet normal -2.588190e-01 -0.000000e+00 -9.659258e-01
      outer loop
         vertex 1.159854e+01 3.000000e+00 1.664446e+01
         vertex 1.159854e+01 8.673617e-16 1.664446e+01
         vertex 1.130388e+01 3.000000e+00 1.672341e+01
      endloop
   endfacet
   facet normal -2.588190e-01 -0.000000e+00 -9.659258e-01
      outer loop
         vertex 1.130388e+01 3.000000e+00 1.672341e+01
         vertex 1.159854e+01 8.673617e-16 1.664446e+01
         vertex 1.130388e+01 8.673617e-16 1.672341e+01
      endloop
   endfacet
   facet normal -8.715585e-02 -0.000000e+00 -9.961947e-01
      outer loop
         vertex 1.130388e+01 3.000000e+00 1.672341e+01
         vertex 1.130388e+01 8.673617e-16 1.672341e+01
         vertex 1.100000e+01 3.000000e+00 1.675000e+01
      endloop
   endfacet
   facet normal -8.715585e-02 -0.000000e+00 -9.961947e-01
      outer loop
         vertex 1.100000e+01 3.000000e+00 1.675000e+01
         vertex 1.130388e+01 8.673617e-16 1.672341e+01
         vertex 1.100000e+01 8.673617e-16 1.675000e+01
      endloop
   endfacet
   facet normal 8.715585e-02 0.000000e+00 -9.961947e-01
      outer loop
         vertex 1.100000e+01 3.000000e+00 1.675000e+01
         vertex 1.100000e+01 8.673617e-16 1.675000e+01
         vertex 1.069612e+01 3.000000e+00 1.672341e+01
      endloop
   endfacet
   facet normal 8.715585e-02 0.000000e+00 -9.961947e-01
      outer loop
         vertex 1.069612e+01 3.000000e+00 1.672341e+01
         vertex 1.100000e+01 8.673617e-16 1.675000e+01
         vertex 1.069612e+01 8.673617e-16 1.672341e+01
      endloop
   endfacet
   facet normal 2.588190e-01 0.000000e+00 -9.659258e-01
      outer loop
         vertex 1.069612e+01 3.000000e+00 1.672341e+01
         vertex 1.069612e+01 8.673617e-16 1.672341e+01
         vertex 1.040146e+01 3.000000e+00 1.664446e+01
      endloop
   endfacet
   facet normal 2.588190e-01 0.000000e+00 -9.659258e-01
      outer loop
         vertex 1.040146e+01 3.000000e+00 1.664446e+01
         vertex 1.069612e+01 8.673617e-16 1.672341e+01
         vertex 1.040146e+01 8.673617e-16 1.664446e+01
      endloop
   endfacet
   facet normal 4.226176e-01 0.000000e+00 -9.063081e-01
      outer loop
         vertex 1.040146e+01 3.000000e+00 1.664446e+01
         vertex 1.040146e+01 8.673617e-16 1.664446e+01
         vertex 1.012500e+01 3.000000e+00 1.651554e+01
      endloop
   endfacet
   facet normal 4.226176e-01 0.000000e+00 -9.063081e-01
      outer loop
         vertex 1.012500e+01 3.000000e+00 1.651554e+01
         vertex 1.040146e+01 8.673617e-16 1.664446e+01
         vertex 1.012500e+01 8.673617e-16 1.651554e+01
      endloop
   endfacet
   facet normal 5.735764e-01 0.000000e+00 -8.191521e-01
      outer loop
         vertex 1.012500e+01 3.000000e+00 1.651554e+01
         vertex 1.012500e+01 8.673617e-16 1.651554e+01
         vertex 9.875122e+00 3.000000e+00 1.634058e+01
      endloop
   endfacet
   facet normal 5.735764e-01 0.000000e+00 -8.191521e-01
      outer loop
         vertex 9.875122e+00 3.000000e+00 1.634058e+01
         vertex 1.012500e+01 8.673617e-16 1.651554e+01
         vertex 9.875122e+00 8.673617e-16 1.634058e+01
      endloop
   endfacet
   facet normal 7.071068e-01 0.000000e+00 -7.071068e-01
      outer loop
         vertex 9.875122e+00 3.000000e+00 1.634058e+01
         vertex 9.875122e+00 8.673617e-16 1.634058e+01
         vertex 9.659422e+00 3.000000e+00 1.612488e+01
      endloop
   endfacet
   facet normal 7.071068e-01 0.000000e+00 -7.071068e-01
      outer loop
         vertex 9.659422e+00 3.000000e+00 1.612488e+01
         vertex 9.875122e+00 8.673617e-16 1.634058e+01
         vertex 9.659422e+00 8.673617e-16 1.612488e+01
      endloop
   endfacet
   facet normal 8.191521e-01 0.000000e+00 -5.735763e-01
      outer loop
         vertex 9.659422e+00 3.000000e+00 1.612488e+01
         vertex 9.659422e+00 8.673617e-16 1.612488e+01
         vertex 9.484455e+00 3.000000e+00 1.587500e+01
      endloop
   endfacet
   facet normal 8.191521e-01 0.000000e+00 -5.735763e-01
      outer loop
         vertex 9.484455e+00 3.000000e+00 1.587500e+01
         vertex 9.659422e+00 8.673617e-16 1.612488e+01
         vertex 9.484455e+00 8.673617e-16 1.587500e+01
      endloop
   endfacet
   facet normal 9.063076e-01 0.000000e+00 -4.226186e-01
      outer loop
         vertex 9.484455e+00 3.000000e+00 1.587500e+01
         vertex 9.484455e+00 8.673617e-16 1.587500e+01
         vertex 9.355538e+00 3.000000e+00 1.559854e+01
      endloop
   endfacet
   facet normal 9.063076e-01 0.000000e+00 -4.226186e-01
      outer loop
         vertex 9.355538e+00 3.000000e+00 1.559854e+01
         vertex 9.484455e+00 8.673617e-16 1.587500e+01
         vertex 9.355538e+00 8.673617e-16 1.559854e+01
      endloop
   endfacet
   facet normal 9.659259e-01 0.000000e+00 -2.588187e-01
      outer loop
         vertex 9.355538e+00 3.000000e+00 1.559854e+01
         vertex 9.355538e+00 8.673617e-16 1.559854e+01
         vertex 9.276586e+00 3.000000e+00 1.530388e+01
      endloop
   endfacet
   facet normal 9.659259e-01 0.000000e+00 -2.588187e-01
      outer loop
         vertex 9.276586e+00 3.000000e+00 1.530388e+01
         vertex 9.355538e+00 8.673617e-16 1.559854e+01
         vertex 9.276586e+00 8.673617e-16 1.530388e+01
      endloop
   endfacet
   facet normal 9.961947e-01 0.000000e+00 -8.715593e-02
      outer loop
         vertex 9.276586e+00 3.000000e+00 1.530388e+01
         vertex 9.276586e+00 8.673617e-16 1.530388e+01
         vertex 9.250000e+00 3.000000e+00 1.500000e+01
      endloop
   endfacet
   facet normal 9.961947e-01 0.000000e+00 -8.715593e-02
      outer loop
         vertex 9.250000e+00 3.000000e+00 1.500000e+01
         vertex 9.276586e+00 8.673617e-16 1.530388e+01
         vertex 9.250000e+00 8.673617e-16 1.500000e+01
      endloop
   endfacet
   facet normal 9.961947e-01 0.000000e+00 8.715580e-02
      outer loop
         vertex 9.250000e+00 3.000000e+00 1.500000e+01
         vertex 9.250000e+00 8.673617e-16 1.500000e+01
         vertex 9.276586e+00 3.000000e+00 1.469612e+01
      endloop
   endfacet
   facet normal 9.961947e-01 0.000000e+00 8.715580e-02
      outer loop
         vertex 9.276586e+00 3.000000e+00 1.469612e+01
         vertex 9.250000e+00 8.673617e-16 1.500000e+01
         vertex 9.276586e+00 8.673617e-16 1.469612e+01
      endloop
   endfacet
   facet normal 9.659258e-01 0.000000e+00 2.588191e-01
      outer loop
         vertex 9.276586e+00 3.000000e+00 1.469612e+01
         vertex 9.276586e+00 8.673617e-16 1.469612e+01
         vertex 9.355538e+00 3.000000e+00 1.440146e+01
      endloop
   endfacet
   facet normal 9.659258e-01 0.000000e+00 2.588191e-01
      outer loop
         vertex 9.355538e+00 3.000000e+00 1.440146e+01
         vertex 9.276586e+00 8.673617e-16 1.469612e+01
         vertex 9.355538e+00 8.673617e-16 1.440146e+01
      endloop
   endfacet
   facet normal 9.063076e-01 0.000000e+00 4.226186e-01
      outer loop
         vertex 9.355538e+00 3.000000e+00 1.440146e+01
         vertex 9.355538e+00 8.673617e-16 1.440146e+01
         vertex 9.484455e+00 3.000000e+00 1.412500e+01
      endloop
   endfacet
   facet normal 9.063076e-01 0.000000e+00 4.226186e-01
      outer loop
         vertex 9.484455e+00 3.000000e+00 1.412500e+01
         vertex 9.355538e+00 8.673617e-16 1.440146e+01
         vertex 9.484455e+00 8.673617e-16 1.412500e+01
      endloop
   endfacet
   facet normal 8.191521e-01 0.000000e+00 5.735763e-01
      outer loop
         vertex 9.484455e+00 3.000000e+00 1.412500e+01
         vertex 9.484455e+00 8.673617e-16 1.412500e+01
         vertex 9.659422e+00 3.000000e+00 1.387512e+01
      endloop
   endfacet
   facet normal 8.191521e-01 0.000000e+00 5.735763e-01
      outer loop
         vertex 9.659422e+00 3.000000e+00 1.387512e+01
         vertex 9.484455e+00 8.673617e-16 1.412500e+01
         vertex 9.659422e+00 8.673617e-16 1.387512e+01
      endloop
   endfacet
   facet normal 7.071068e-01 0.000000e+00 7.071068e-01
      outer loop
         vertex 9.659422e+00 3.000000e+00 1.387512e+01
         vertex 9.659422e+00 8.673617e-16 1.387512e+01
         vertex 9.875122e+00 3.000000e+00 1.365942e+01
      endloop
   endfacet
   facet normal 7.071068e-01 0.000000e+00 7.071068e-01
      outer loop
         vertex 9.875122e+00 3.000000e+00 1.365942e+01
         vertex 9.659422e+00 8.673617e-16 1.387512e+01
         vertex 9.875122e+00 8.673617e-16 1.365942e+01
      endloop
   endfacet
   facet normal 5.735764e-01 0.000000e+00 8.191521e-01
      outer loop
         vertex 9.875122e+00 3.000000e+00 1.365942e+01
         vertex 9.875122e+00 8.673617e-16 1.365942e+01
         vertex 1.012500e+01 3.000000e+00 1.348446e+01
      endloop
   endfacet
   facet normal 5.735764e-01 0.000000e+00 8.191521e-01
      outer loop
         vertex 1.012500e+01 3.000000e+00 1.348446e+01
         vertex 9.875122e+00 8.673617e-16 1.365942e+01
         vertex 1.012500e+01 8.673617e-16 1.348446e+01
      endloop
   endfacet
   facet normal 4.226188e-01 0.000000e+00 9.063075e-01
      outer loop
         vertex 1.012500e+01 3.000000e+00 1.348446e+01
         vertex 1.012500e+01 8.673617e-16 1.348446e+01
         vertex 1.040146e+01 3.000000e+00 1.335554e+01
      endloop
   endfacet
   facet normal 4.226188e-01 0.000000e+00 9.063075e-01
      outer loop
         vertex 1.040146e+01 3.000000e+00 1.335554e+01
         vertex 1.012500e+01 8.673617e-16 1.348446e+01
         vertex 1.040146e+01 8.673617e-16 1.335554e+01
      endloop
   endfacet
   facet normal 2.588190e-01 0.000000e+00 9.659258e-01
      outer loop
         vertex 1.040146e+01 3.000000e+00 1.335554e+01
         vertex 1.040146e+01 8.673617e-16 1.335554e+01
         vertex 1.069612e+01 3.000000e+00 1.327659e+01
      endloop
   endfacet
   facet normal 2.588190e-01 0.000000e+00 9.659258e-01
      outer loop
         vertex 1.069612e+01 3.000000e+00 1.327659e+01
         vertex 1.040146e+01 8.673617e-16 1.335554e+01
         vertex 1.069612e+01 8.673617e-16 1.327659e+01
      endloop
   endfacet
   facet normal 8.715434e-02 0.000000e+00 9.961948e-01
      outer loop
         vertex 1.069612e+01 3.000000e+00 1.327659e+01
         vertex 1.069612e+01 8.673617e-16 1.327659e+01
         vertex 1.100000e+01 3.000000e+00 1.325000e+01
      endloop
   endfacet
   facet normal 8.715434e-02 0.000000e+00 9.961948e-01
      outer loop
         vertex 1.100000e+01 3.000000e+00 1.325000e+01
         vertex 1.069612e+01 8.673617e-16 1.327659e+01
         vertex 1.100000e+01 8.673617e-16 1.325000e+01
      endloop
   endfacet
   facet normal -8.715585e-02 0.000000e+00 9.961947e-01
      outer loop
         vertex 1.100000e+01 3.000000e+00 1.250000e+00
         vertex 1.100000e+01 8.673617e-16 1.250000e+00
         vertex 1.130388e+01 3.000000e+00 1.276586e+00
      endloop
   endfacet
   facet normal -8.715585e-02 0.000000e+00 9.961947e-01
      outer loop
         vertex 1.130388e+01 3.000000e+00 1.276586e+00
         vertex 1.100000e+01 8.673617e-16 1.250000e+00
         vertex 1.130388e+01 8.673617e-16 1.276586e+00
      endloop
   endfacet
   facet normal -2.588190e-01 0.000000e+00 9.659258e-01
      outer loop
         vertex 1.130388e+01 3.000000e+00 1.276586e+00
         vertex 1.130388e+01 8.673617e-16 1.276586e+00
         vertex 1.159854e+01 3.000000e+00 1.355538e+00
      endloop
   endfacet
   facet normal -2.588190e-01 0.000000e+00 9.659258e-01
      outer loop
         vertex 1.159854e+01 3.000000e+00 1.355538e+00
         vertex 1.130388e+01 8.673617e-16 1.276586e+00
         vertex 1.159854e+01 8.673617e-16 1.355538e+00
      endloop
   endfacet
   facet normal -4.226176e-01 0.000000e+00 9.063081e-01
      outer loop
         vertex 1.159854e+01 3.000000e+00 1.355538e+00
         vertex 1.159854e+01 8.673617e-16 1.355538e+00
         vertex 1.187500e+01 3.000000e+00 1.484455e+00
      endloop
   endfacet
   facet normal -4.226176e-01 0.000000e+00 9.063081e-01
      outer loop
         vertex 1.187500e+01 3.000000e+00 1.484455e+00
         vertex 1.159854e+01 8.673617e-16 1.355538e+00
         vertex 1.187500e+01 8.673617e-16 1.484455e+00
      endloop
   endfacet
   facet normal -5.735764e-01 0.000000e+00 8.191521e-01
      outer loop
         vertex 1.187500e+01 3.000000e+00 1.484455e+00
         vertex 1.187500e+01 8.673617e-16 1.484455e+00
         vertex 1.212488e+01 3.000000e+00 1.659422e+00
      endloop
   endfacet
   facet normal -5.735764e-01 0.000000e+00 8.191521e-01
      outer loop
         vertex 1.212488e+01 3.000000e+00 1.659422e+00
         vertex 1.187500e+01 8.673617e-16 1.484455e+00
         vertex 1.212488e+01 8.673617e-16 1.659422e+00
      endloop
   endfacet
   facet normal -7.071068e-01 0.000000e+00 7.071068e-01
      outer loop
         vertex 1.212488e+01 3.000000e+00 1.659422e+00
         vertex 1.212488e+01 8.673617e-16 1.659422e+00
         vertex 1.234058e+01 3.000000e+00 1.875121e+00
      endloop
   endfacet
   facet normal -7.071068e-01 0.000000e+00 7.071068e-01
      outer loop
         vertex 1.234058e+01 3.000000e+00 1.875121e+00
         vertex 1.212488e+01 8.673617e-16 1.659422e+00
         vertex 1.234058e+01 8.673617e-16 1.875121e+00
      endloop
   endfacet
   facet normal -8.191521e-01 0.000000e+00 5.735763e-01
      outer loop
         vertex 1.234058e+01 3.000000e+00 1.875121e+00
         vertex 1.234058e+01 8.673617e-16 1.875121e+00
         vertex 1.251554e+01 3.000000e+00 2.125000e+00
      endloop
   endfacet
   facet normal -8.191521e-01 0.000000e+00 5.735763e-01
      outer loop
         vertex 1.251554e+01 3.000000e+00 2.125000e+00
         vertex 1.234058e+01 8.673617e-16 1.875121e+00
         vertex 1.251554e+01 8.673617e-16 2.125000e+00
      endloop
   endfacet
   facet normal -9.063076e-01 0.000000e+00 4.226186e-01
      outer loop
         vertex 1.251554e+01 3.000000e+00 2.125000e+00
         vertex 1.251554e+01 8.673617e-16 2.125000e+00
         vertex 1.264446e+01 3.000000e+00 2.401464e+00
      endloop
   endfacet
   facet normal -9.063076e-01 0.000000e+00 4.226186e-01
      outer loop
         vertex 1.264446e+01 3.000000e+00 2.401464e+00
         vertex 1.251554e+01 8.673617e-16 2.125000e+00
         vertex 1.264446e+01 8.673617e-16 2.401464e+00
      endloop
   endfacet
   facet normal -9.659259e-01 0.000000e+00 2.588187e-01
      outer loop
         vertex 1.264446e+01 3.000000e+00 2.401464e+00
         vertex 1.264446e+01 8.673617e-16 2.401464e+00
         vertex 1.272341e+01 3.000000e+00 2.696116e+00
      endloop
   endfacet
   facet normal -9.659259e-01 0.000000e+00 2.588187e-01
      outer loop
         vertex 1.272341e+01 3.000000e+00 2.696116e+00
         vertex 1.264446e+01 8.673617e-16 2.401464e+00
         vertex 1.272341e+01 8.673617e-16 2.696116e+00
      endloop
   endfacet
   facet normal -9.961947e-01 0.000000e+00 8.715593e-02
      outer loop
         vertex 1.272341e+01 3.000000e+00 2.696116e+00
         vertex 1.272341e+01 8.673617e-16 2.696116e+00
         vertex 1.275000e+01 3.000000e+00 3.000000e+00
      endloop
   endfacet
   facet normal -9.961947e-01 0.000000e+00 8.715593e-02
      outer loop
         vertex 1.275000e+01 3.000000e+00 3.000000e+00
         vertex 1.272341e+01 8.673617e-16 2.696116e+00
         vertex 1.275000e+01 8.673617e-16 3.000000e+00
      endloop
   endfacet
   facet normal -9.961947e-01 -0.000000e+00 -8.715580e-02
      outer loop
         vertex 1.275000e+01 3.000000e+00 3.000000e+00
         vertex 1.275000e+01 8.673617e-16 3.000000e+00
         vertex 1.272341e+01 3.000000e+00 3.303884e+00
      endloop
   endfacet
   facet normal -9.961947e-01 -0.000000e+00 -8.715580e-02
      outer loop
         vertex 1.272341e+01 3.000000e+00 3.303884e+00
         vertex 1.275000e+01 8.673617e-16 3.000000e+00
         vertex 1.272341e+01 8.673617e-16 3.303884e+00
      endloop
   endfacet
   facet normal -9.659258e-01 -0.000000e+00 -2.588191e-01
      outer loop
         vertex 1.272341e+01 3.000000e+00 3.303884e+00
         vertex 1.272341e+01 8.673617e-16 3.303884e+00
         vertex 1.264446e+01 3.000000e+00 3.598535e+00
      endloop
   endfacet
   facet normal -9.659258e-01 -0.000000e+00 -2.588191e-01
      outer loop
         vertex 1.264446e+01 3.000000e+00 3.598535e+00
         vertex 1.272341e+01 8.673617e-16 3.303884e+00
         vertex 1.264446e+01 8.673617e-16 3.598535e+00
      endloop
   endfacet
   facet normal -9.063076e-01 -0.000000e+00 -4.226186e-01
      outer loop
         vertex 1.264446e+01 3.000000e+00 3.598535e+00
         vertex 1.264446e+01 8.673617e-16 3.598535e+00
         vertex 1.251554e+01 3.000000e+00 3.874999e+00
      endloop
   endfacet
   facet normal -9.063076e-01 -0.000000e+00 -4.226186e-01
      outer loop
         vertex 1.251554e+01 3.000000e+00 3.874999e+00
         vertex 1.264446e+01 8.673617e-16 3.598535e+00
         vertex 1.251554e+01 8.673617e-16 3.874999e+00
      endloop
   endfacet
   facet normal -8.191521e-01 -0.000000e+00 -5.735763e-01
      outer loop
         vertex 1.251554e+01 3.000000e+00 3.874999e+00
         vertex 1.251554e+01 8.673617e-16 3.874999e+00
         vertex 1.234058e+01 3.000000e+00 4.124878e+00
      endloop
   endfacet
   facet normal -8.191521e-01 -0.000000e+00 -5.735763e-01
      outer loop
         vertex 1.234058e+01 3.000000e+00 4.124878e+00
         vertex 1.251554e+01 8.673617e-16 3.874999e+00
         vertex 1.234058e+01 8.673617e-16 4.124878e+00
      endloop
   endfacet
   facet normal -7.071068e-01 -0.000000e+00 -7.071068e-01
      outer loop
         vertex 1.234058e+01 3.000000e+00 4.124878e+00
         vertex 1.234058e+01 8.673617e-16 4.124878e+00
         vertex 1.212488e+01 3.000000e+00 4.340577e+00
      endloop
   endfacet
   facet normal -7.071068e-01 -0.000000e+00 -7.071068e-01
      outer loop
         vertex 1.212488e+01 3.000000e+00 4.340577e+00
         vertex 1.234058e+01 8.673617e-16 4.124878e+00
         vertex 1.212488e+01 8.673617e-16 4.340577e+00
      endloop
   endfacet
   facet normal -5.735764e-01 -0.000000e+00 -8.191521e-01
      outer loop
         vertex 1.212488e+01 3.000000e+00 4.340577e+00
         vertex 1.212488e+01 8.673617e-16 4.340577e+00
         vertex 1.187500e+01 3.000000e+00 4.515544e+00
      endloop
   endfacet
   facet normal -5.735764e-01 -0.000000e+00 -8.191521e-01
      outer loop
         vertex 1.187500e+01 3.000000e+00 4.515544e+00
         vertex 1.212488e+01 8.673617e-16 4.340577e+00
         vertex 1.187500e+01 8.673617e-16 4.515544e+00
      endloop
   endfacet
   facet normal -4.226188e-01 -0.000000e+00 -9.063075e-01
      outer loop
         vertex 1.187500e+01 3.000000e+00 4.515544e+00
         vertex 1.187500e+01 8.673617e-16 4.515544e+00
         vertex 1.159854e+01 3.000000e+00 4.644462e+00
      endloop
   endfacet
   facet normal -4.226188e-01 -0.000000e+00 -9.063075e-01
      outer loop
         vertex 1.159854e+01 3.000000e+00 4.644462e+00
         vertex 1.187500e+01 8.673617e-16 4.515544e+00
         vertex 1.159854e+01 8.673617e-16 4.644462e+00
      endloop
   endfacet
   facet normal -2.588190e-01 -0.000000e+00 -9.659258e-01
      outer loop
         vertex 1.159854e+01 3.000000e+00 4.644462e+00
         vertex 1.159854e+01 8.673617e-16 4.644462e+00
         vertex 1.130388e+01 3.000000e+00 4.723413e+00
      endloop
   endfacet
   facet normal -2.588190e-01 -0.000000e+00 -9.659258e-01
      outer loop
         vertex 1.130388e+01 3.000000e+00 4.723413e+00
         vertex 1.159854e+01 8.673617e-16 4.644462e+00
         vertex 1.130388e+01 8.673617e-16 4.723413e+00
      endloop
   endfacet
   facet normal -8.715434e-02 -0.000000e+00 -9.961948e-01
      outer loop
         vertex 1.130388e+01 3.000000e+00 4.723413e+00
         vertex 1.130388e+01 8.673617e-16 4.723413e+00
         vertex 1.100000e+01 3.000000e+00 4.749999e+00
      endloop
   endfacet
   facet normal -8.715434e-02 -0.000000e+00 -9.961948e-01
      outer loop
         vertex 1.100000e+01 3.000000e+00 4.749999e+00
         vertex 1.130388e+01 8.673617e-16 4.723413e+00
         vertex 1.100000e+01 8.673617e-16 4.749999e+00
      endloop
   endfacet
   facet normal 8.715434e-02 0.000000e+00 -9.961948e-01
      outer loop
         vertex 1.100000e+01 3.000000e+00 4.749999e+00
         vertex 1.100000e+01 8.673617e-16 4.749999e+00
         vertex 1.069612e+01 3.000000e+00 4.723413e+00
      endloop
   endfacet
   facet normal 8.715434e-02 0.000000e+00 -9.961948e-01
      outer loop
         vertex 1.069612e+01 3.000000e+00 4.723413e+00
         vertex 1.100000e+01 8.673617e-16 4.749999e+00
         vertex 1.069612e+01 8.673617e-16 4.723413e+00
      endloop
   endfacet
   facet normal 2.588190e-01 0.000000e+00 -9.659258e-01
      outer loop
         vertex 1.069612e+01 3.000000e+00 4.723413e+00
         vertex 1.069612e+01 8.673617e-16 4.723413e+00
         vertex 1.040146e+01 3.000000e+00 4.644462e+00
      endloop
   endfacet
   facet normal 2.588190e-01 0.000000e+00 -9.659258e-01
      outer loop
         vertex 1.040146e+01 3.000000e+00 4.644462e+00
         vertex 1.069612e+01 8.673617e-16 4.723413e+00
         vertex 1.040146e+01 8.673617e-16 4.644462e+00
      endloop
   endfacet
   facet normal 4.226188e-01 0.000000e+00 -9.063075e-01
      outer loop
         vertex 1.040146e+01 3.000000e+00 4.644462e+00
         vertex 1.040146e+01 8.673617e-16 4.644462e+00
         vertex 1.012500e+01 3.000000e+00 4.515544e+00
      endloop
   endfacet
   facet normal 4.226188e-01 0.000000e+00 -9.063075e-01
      outer loop
         vertex 1.012500e+01 3.000000e+00 4.515544e+00
         vertex 1.040146e+01 8.673617e-16 4.644462e+00
         vertex 1.012500e+01 8.673617e-16 4.515544e+00
      endloop
   endfacet
   facet normal 5.735764e-01 0.000000e+00 -8.191521e-01
      outer loop
         vertex 1.012500e+01 3.000000e+00 4.515544e+00
         vertex 1.012500e+01 8.673617e-16 4.515544e+00
         vertex 9.875122e+00 3.000000e+00 4.340577e+00
      endloop
   endfacet
   facet normal 5.735764e-01 0.000000e+00 -8.191521e-01
      outer loop
         vertex 9.875122e+00 3.000000e+00 4.340577e+00
         vertex 1.012500e+01 8.673617e-16 4.515544e+00
         vertex 9.875122e+00 8.673617e-16 4.340577e+00
      endloop
   endfacet
   facet normal 7.071068e-01 0.000000e+00 -7.071068e-01
      outer loop
         vertex 9.875122e+00 3.000000e+00 4.340577e+00
         vertex 9.875122e+00 8.673617e-16 4.340577e+00
         vertex 9.659422e+00 3.000000e+00 4.124878e+00
      endloop
   endfacet
   facet normal 7.071068e-01 0.000000e+00 -7.071068e-01
      outer loop
         vertex 9.659422e+00 3.000000e+00 4.124878e+00
         vertex 9.875122e+00 8.673617e-16 4.340577e+00
         vertex 9.659422e+00 8.673617e-16 4.124878e+00
      endloop
   endfacet
   facet normal 8.191521e-01 0.000000e+00 -5.735763e-01
      outer loop
         vertex 9.659422e+00 3.000000e+00 4.124878e+00
         vertex 9.659422e+00 8.673617e-16 4.124878e+00
         vertex 9.484455e+00 3.000000e+00 3.874999e+00
      endloop
   endfacet
   facet normal 8.191521e-01 0.000000e+00 -5.735763e-01
      outer loop
         vertex 9.484455e+00 3.000000e+00 3.874999e+00
         vertex 9.659422e+00 8.673617e-16 4.124878e+00
         vertex 9.484455e+00 8.673617e-16 3.874999e+00
      endloop
   endfacet
   facet normal 9.063076e-01 0.000000e+00 -4.226186e-01
      outer loop
         vertex 9.484455e+00 3.000000e+00 3.874999e+00
         vertex 9.484455e+00 8.673617e-16 3.874999e+00
         vertex 9.355538e+00 3.000000e+00 3.598535e+00
      endloop
   endfacet
   facet normal 9.063076e-01 0.000000e+00 -4.226186e-01
      outer loop
         vertex 9.355538e+00 3.000000e+00 3.598535e+00
         vertex 9.484455e+00 8.673617e-16 3.874999e+00
         vertex 9.355538e+00 8.673617e-16 3.598535e+00
      endloop
   endfacet
   facet normal 9.659258e-01 0.000000e+00 -2.588191e-01
      outer loop
         vertex 9.355538e+00 3.000000e+00 3.598535e+00
         vertex 9.355538e+00 8.673617e-16 3.598535e+00
         vertex 9.276586e+00 3.000000e+00 3.303884e+00
      endloop
   endfacet
   facet normal 9.659258e-01 0.000000e+00 -2.588191e-01
      outer loop
         vertex 9.276586e+00 3.000000e+00 3.303884e+00
         vertex 9.355538e+00 8.673617e-16 3.598535e+00
         vertex 9.276586e+00 8.673617e-16 3.303884e+00
      endloop
   endfacet
   facet normal 9.961947e-01 0.000000e+00 -8.715580e-02
      outer loop
         vertex 9.276586e+00 3.000000e+00 3.303884e+00
         vertex 9.276586e+00 8.673617e-16 3.303884e+00
         vertex 9.250000e+00 3.000000e+00 3.000000e+00
      endloop
   endfacet
   facet normal 9.961947e-01 0.000000e+00 -8.715580e-02
      outer loop
         vertex 9.250000e+00 3.000000e+00 3.000000e+00
         vertex 9.276586e+00 8.673617e-16 3.303884e+00
         vertex 9.250000e+00 8.673617e-16 3.000000e+00
      endloop
   endfacet
   facet normal 9.961947e-01 0.000000e+00 8.715593e-02
      outer loop
         vertex 9.250000e+00 3.000000e+00 3.000000e+00
         vertex 9.250000e+00 8.673617e-16 3.000000e+00
         vertex 9.276586e+00 3.000000e+00 2.696116e+00
      endloop
   endfacet
   facet normal 9.961947e-01 0.000000e+00 8.715593e-02
      outer loop
         vertex 9.276586e+00 3.000000e+00 2.696116e+00
         vertex 9.250000e+00 8.673617e-16 3.000000e+00
         vertex 9.276586e+00 8.673617e-16 2.696116e+00
      endloop
   endfacet
   facet normal 9.659259e-01 0.000000e+00 2.588187e-01
      outer loop
         vertex 9.276586e+00 3.000000e+00 2.696116e+00
         vertex 9.276586e+00 8.673617e-16 2.696116e+00
         vertex 9.355538e+00 3.000000e+00 2.401464e+00
      endloop
   endfacet
   facet normal 9.659259e-01 0.000000e+00 2.588187e-01
      outer loop
         vertex 9.355538e+00 3.000000e+00 2.401464e+00
         vertex 9.276586e+00 8.673617e-16 2.696116e+00
         vertex 9.355538e+00 8.673617e-16 2.401464e+00
      endloop
   endfacet
   facet normal 9.063076e-01 0.000000e+00 4.226186e-01
      outer loop
         vertex 9.355538e+00 3.000000e+00 2.401464e+00
         vertex 9.355538e+00 8.673617e-16 2.401464e+00
         vertex 9.484455e+00 3.000000e+00 2.125000e+00
      endloop
   endfacet
   facet normal 9.063076e-01 0.000000e+00 4.226186e-01
      outer loop
         vertex 9.484455e+00 3.000000e+00 2.125000e+00
         vertex 9.355538e+00 8.673617e-16 2.401464e+00
         vertex 9.484455e+00 8.673617e-16 2.125000e+00
      endloop
   endfacet
   facet normal 8.191521e-01 0.000000e+00 5.735763e-01
      outer loop
         vertex 9.484455e+00 3.000000e+00 2.125000e+00
         vertex 9.484455e+00 8.673617e-16 2.125000e+00
         vertex 9.659422e+00 3.000000e+00 1.875121e+00
      endloop
   endfacet
   facet normal 8.191521e-01 0.000000e+00 5.735763e-01
      outer loop
         vertex 9.659422e+00 3.000000e+00 1.875121e+00
         vertex 9.484455e+00 8.673617e-16 2.125000e+00
         vertex 9.659422e+00 8.673617e-16 1.875121e+00
      endloop
   endfacet
   facet normal 7.071068e-01 0.000000e+00 7.071068e-01
      outer loop
         vertex 9.659422e+00 3.000000e+00 1.875121e+00
         vertex 9.659422e+00 8.673617e-16 1.875121e+00
         vertex 9.875122e+00 3.000000e+00 1.659422e+00
      endloop
   endfacet
   facet normal 7.071068e-01 0.000000e+00 7.071068e-01
      outer loop
         vertex 9.875122e+00 3.000000e+00 1.659422e+00
         vertex 9.659422e+00 8.673617e-16 1.875121e+00
         vertex 9.875122e+00 8.673617e-16 1.659422e+00
      endloop
   endfacet
   facet normal 5.735764e-01 0.000000e+00 8.191521e-01
      outer loop
         vertex 9.875122e+00 3.000000e+00 1.659422e+00
         vertex 9.875122e+00 8.673617e-16 1.659422e+00
         vertex 1.012500e+01 3.000000e+00 1.484455e+00
      endloop
   endfacet
   facet normal 5.735764e-01 0.000000e+00 8.191521e-01
      outer loop
         vertex 1.012500e+01 3.000000e+00 1.484455e+00
         vertex 9.875122e+00 8.673617e-16 1.659422e+00
         vertex 1.012500e+01 8.673617e-16 1.484455e+00
      endloop
   endfacet
   facet normal 4.226176e-01 0.000000e+00 9.063081e-01
      outer loop
         vertex 1.012500e+01 3.000000e+00 1.484455e+00
         vertex 1.012500e+01 8.673617e-16 1.484455e+00
         vertex 1.040146e+01 3.000000e+00 1.355538e+00
      endloop
   endfacet
   facet normal 4.226176e-01 0.000000e+00 9.063081e-01
      outer loop
         vertex 1.040146e+01 3.000000e+00 1.355538e+00
         vertex 1.012500e+01 8.673617e-16 1.484455e+00
         vertex 1.040146e+01 8.673617e-16 1.355538e+00
      endloop
   endfacet
   facet normal 2.588190e-01 0.000000e+00 9.659258e-01
      outer loop
         vertex 1.040146e+01 3.000000e+00 1.355538e+00
         vertex 1.040146e+01 8.673617e-16 1.355538e+00
         vertex 1.069612e+01 3.000000e+00 1.276586e+00
      endloop
   endfacet
   facet normal 2.588190e-01 0.000000e+00 9.659258e-01
      outer loop
         vertex 1.069612e+01 3.000000e+00 1.276586e+00
         vertex 1.040146e+01 8.673617e-16 1.355538e+00
         vertex 1.069612e+01 8.673617e-16 1.276586e+00
      endloop
   endfacet
   facet normal 8.715585e-02 0.000000e+00 9.961947e-01
      outer loop
         vertex 1.069612e+01 3.000000e+00 1.276586e+00
         vertex 1.069612e+01 8.673617e-16 1.276586e+00
         vertex 1.100000e+01 3.000000e+00 1.250000e+00
      endloop
   endfacet
   facet normal 8.715585e-02 0.000000e+00 9.961947e-01
      outer loop
         vertex 1.100000e+01 3.000000e+00 1.250000e+00
         vertex 1.069612e+01 8.673617e-16 1.276586e+00
         vertex 1.100000e+01 8.673617e-16 1.250000e+00
      endloop
   endfacet
   facet normal 7.071066e-01 -0.000000e+00 7.071069e-01
      outer loop
         vertex 2.000000e+01 0.000000e+00 1.800000e+01
         vertex 2.200000e+01 0.000000e+00 1.600000e+01
         vertex 2.000000e+01 3.000000e+00 1.800000e+01
      endloop
   endfacet
   facet normal 7.071066e-01 0.000000e+00 7.071069e-01
      outer loop
         vertex 2.000000e+01 3.000000e+00 1.800000e+01
         vertex 2.200000e+01 0.000000e+00 1.600000e+01
         vertex 2.200000e+01 3.000000e+00 1.600000e+01
      endloop
   endfacet
   facet normal 7.071066e-01 0.000000e+00 -7.071069e-01
      outer loop
         vertex 2.200000e+01 0.000000e+00 1.999999e+00
         vertex 2.000000e+01 0.000000e+00 0.000000e+00
         vertex 2.200000e+01 3.000000e+00 1.999999e+00
      endloop
   endfacet
   facet normal 7.071066e-01 0.000000e+00 -7.071069e-01
      outer loop
         vertex 2.200000e+01 3.000000e+00 1.999999e+00
         vertex 2.000000e+01 0.000000e+00 0.000000e+00
         vertex 2.000000e+01 3.000000e+00 0.000000e+00
      endloop
   endfacet
   facet normal -7.071066e-01 0.000000e+00 -7.071069e-01
      outer loop
         vertex 2.000000e+00 0.000000e+00 0.000000e+00
         vertex 0.000000e+00 0.000000e+00 1.999999e+00
         vertex 2.000000e+00 3.000000e+00 0.000000e+00
      endloop
   endfacet
   facet normal -7.071066e-01 0.000000e+00 -7.071069e-01
      outer loop
         vertex 2.000000e+00 3.000000e+00 0.000000e+00
         vertex 0.000000e+00 0.000000e+00 1.999999e+00
         vertex 0.000000e+00 3.000000e+00 1.999999e+00
      endloop
   endfacet
   facet normal -7.071066e-01 0.000000e+00 7.071069e-01
      outer loop
         vertex 0.000000e+00 0.000000e+00 1.600000e+01
         vertex 2.000000e+00 0.000000e+00 1.800000e+01
         vertex 0.000000e+00 3.000000e+00 1.600000e+01
      endloop
   endfacet
   facet normal -7.071066e-01 0.000000e+00 7.071069e-01
      outer loop
         vertex 0.000000e+00 3.000000e+00 1.600000e+01
         vertex 2.000000e+00 0.000000e+00 1.800000e+01
         vertex 2.000000e+00 3.000000e+00 1.800000e+01
      endloop
   endfacet
endsolid