%TF.GenerationSoftware,KiCad,Pcbnew,(5.1.6)-1*%
%TF.CreationDate,2023-02-05T19:48:36+01:00*%
%TF.ProjectId,Hotend_board,486f7465-6e64-45f6-926f-6172642e6b69,rev?*%
%TF.SameCoordinates,Original*%
%TF.FileFunction,Legend,Bot*%
%TF.FilePolarity,Positive*%
%FSLAX46Y46*%
G04 Gerber Fmt 4.6, Leading zero omitted, Abs format (unit mm)*
G04 Created by KiCad (PCBNEW (5.1.6)-1) date 2023-02-05 19:48:36*
%MOMM*%
%LPD*%
G01*
G04 APERTURE LIST*
%ADD10C,0.150000*%
%ADD11C,0.120000*%
G04 APERTURE END LIST*
D10*
X134219047Y-123492380D02*
X134219047Y-124206666D01*
X134266666Y-124349523D01*
X134361904Y-124444761D01*
X134504761Y-124492380D01*
X134600000Y-124492380D01*
X133266666Y-124492380D02*
X133742857Y-124492380D01*
X133742857Y-123492380D01*
X132361904Y-124397142D02*
X132409523Y-124444761D01*
X132552380Y-124492380D01*
X132647619Y-124492380D01*
X132790476Y-124444761D01*
X132885714Y-124349523D01*
X132933333Y-124254285D01*
X132980952Y-124063809D01*
X132980952Y-123920952D01*
X132933333Y-123730476D01*
X132885714Y-123635238D01*
X132790476Y-123540000D01*
X132647619Y-123492380D01*
X132552380Y-123492380D01*
X132409523Y-123540000D01*
X132361904Y-123587619D01*
X131647619Y-123492380D02*
X131647619Y-124206666D01*
X131695238Y-124349523D01*
X131790476Y-124444761D01*
X131933333Y-124492380D01*
X132028571Y-124492380D01*
X130695238Y-124492380D02*
X131171428Y-124492380D01*
X131171428Y-123492380D01*
X129790476Y-124397142D02*
X129838095Y-124444761D01*
X129980952Y-124492380D01*
X130076190Y-124492380D01*
X130219047Y-124444761D01*
X130314285Y-124349523D01*
X130361904Y-124254285D01*
X130409523Y-124063809D01*
X130409523Y-123920952D01*
X130361904Y-123730476D01*
X130314285Y-123635238D01*
X130219047Y-123540000D01*
X130076190Y-123492380D01*
X129980952Y-123492380D01*
X129838095Y-123540000D01*
X129790476Y-123587619D01*
X129076190Y-123492380D02*
X129076190Y-124206666D01*
X129123809Y-124349523D01*
X129219047Y-124444761D01*
X129361904Y-124492380D01*
X129457142Y-124492380D01*
X128123809Y-124492380D02*
X128600000Y-124492380D01*
X128600000Y-123492380D01*
X127219047Y-124397142D02*
X127266666Y-124444761D01*
X127409523Y-124492380D01*
X127504761Y-124492380D01*
X127647619Y-124444761D01*
X127742857Y-124349523D01*
X127790476Y-124254285D01*
X127838095Y-124063809D01*
X127838095Y-123920952D01*
X127790476Y-123730476D01*
X127742857Y-123635238D01*
X127647619Y-123540000D01*
X127504761Y-123492380D01*
X127409523Y-123492380D01*
X127266666Y-123540000D01*
X127219047Y-123587619D01*
X126504761Y-123492380D02*
X126504761Y-124206666D01*
X126552380Y-124349523D01*
X126647619Y-124444761D01*
X126790476Y-124492380D01*
X126885714Y-124492380D01*
X125552380Y-124492380D02*
X126028571Y-124492380D01*
X126028571Y-123492380D01*
X124647619Y-124397142D02*
X124695238Y-124444761D01*
X124838095Y-124492380D01*
X124933333Y-124492380D01*
X125076190Y-124444761D01*
X125171428Y-124349523D01*
X125219047Y-124254285D01*
X125266666Y-124063809D01*
X125266666Y-123920952D01*
X125219047Y-123730476D01*
X125171428Y-123635238D01*
X125076190Y-123540000D01*
X124933333Y-123492380D01*
X124838095Y-123492380D01*
X124695238Y-123540000D01*
X124647619Y-123587619D01*
X124198095Y-114500000D02*
X124293333Y-114452380D01*
X124436190Y-114452380D01*
X124579047Y-114500000D01*
X124674285Y-114595238D01*
X124721904Y-114690476D01*
X124769523Y-114880952D01*
X124769523Y-115023809D01*
X124721904Y-115214285D01*
X124674285Y-115309523D01*
X124579047Y-115404761D01*
X124436190Y-115452380D01*
X124340952Y-115452380D01*
X124198095Y-115404761D01*
X124150476Y-115357142D01*
X124150476Y-115023809D01*
X124340952Y-115023809D01*
X131818095Y-114500000D02*
X131913333Y-114452380D01*
X132056190Y-114452380D01*
X132199047Y-114500000D01*
X132294285Y-114595238D01*
X132341904Y-114690476D01*
X132389523Y-114880952D01*
X132389523Y-115023809D01*
X132341904Y-115214285D01*
X132294285Y-115309523D01*
X132199047Y-115404761D01*
X132056190Y-115452380D01*
X131960952Y-115452380D01*
X131818095Y-115404761D01*
X131770476Y-115357142D01*
X131770476Y-115023809D01*
X131960952Y-115023809D01*
X122872380Y-114452380D02*
X122205714Y-114452380D01*
X122872380Y-115452380D01*
X122205714Y-115452380D01*
X121824761Y-115071428D02*
X121062857Y-115071428D01*
X127285714Y-115404761D02*
X127142857Y-115452380D01*
X126904761Y-115452380D01*
X126809523Y-115404761D01*
X126761904Y-115357142D01*
X126714285Y-115261904D01*
X126714285Y-115166666D01*
X126761904Y-115071428D01*
X126809523Y-115023809D01*
X126904761Y-114976190D01*
X127095238Y-114928571D01*
X127190476Y-114880952D01*
X127238095Y-114833333D01*
X127285714Y-114738095D01*
X127285714Y-114642857D01*
X127238095Y-114547619D01*
X127190476Y-114500000D01*
X127095238Y-114452380D01*
X126857142Y-114452380D01*
X126714285Y-114500000D01*
X129730476Y-114452380D02*
X130206666Y-114452380D01*
X130254285Y-114928571D01*
X130206666Y-114880952D01*
X130111428Y-114833333D01*
X129873333Y-114833333D01*
X129778095Y-114880952D01*
X129730476Y-114928571D01*
X129682857Y-115023809D01*
X129682857Y-115261904D01*
X129730476Y-115357142D01*
X129778095Y-115404761D01*
X129873333Y-115452380D01*
X130111428Y-115452380D01*
X130206666Y-115404761D01*
X130254285Y-115357142D01*
X129397142Y-114452380D02*
X129063809Y-115452380D01*
X128730476Y-114452380D01*
X117727619Y-116178571D02*
X117994285Y-116178571D01*
X117994285Y-116702380D02*
X117994285Y-115702380D01*
X117613333Y-115702380D01*
X117346666Y-116416666D02*
X116965714Y-116416666D01*
X117422857Y-116702380D02*
X117156190Y-115702380D01*
X116889523Y-116702380D01*
X116622857Y-116702380D02*
X116622857Y-115702380D01*
X116165714Y-116702380D01*
X116165714Y-115702380D01*
X115111428Y-116607142D02*
X115149523Y-116654761D01*
X115263809Y-116702380D01*
X115340000Y-116702380D01*
X115454285Y-116654761D01*
X115530476Y-116559523D01*
X115568571Y-116464285D01*
X115606666Y-116273809D01*
X115606666Y-116130952D01*
X115568571Y-115940476D01*
X115530476Y-115845238D01*
X115454285Y-115750000D01*
X115340000Y-115702380D01*
X115263809Y-115702380D01*
X115149523Y-115750000D01*
X115111428Y-115797619D01*
X114768571Y-116702380D02*
X114768571Y-115702380D01*
X114311428Y-116702380D01*
X114311428Y-115702380D01*
X113473333Y-116607142D02*
X113511428Y-116654761D01*
X113625714Y-116702380D01*
X113701904Y-116702380D01*
X113816190Y-116654761D01*
X113892380Y-116559523D01*
X113930476Y-116464285D01*
X113968571Y-116273809D01*
X113968571Y-116130952D01*
X113930476Y-115940476D01*
X113892380Y-115845238D01*
X113816190Y-115750000D01*
X113701904Y-115702380D01*
X113625714Y-115702380D01*
X113511428Y-115750000D01*
X113473333Y-115797619D01*
X111468095Y-116702380D02*
X111468095Y-115702380D01*
X111468095Y-116178571D02*
X110896666Y-116178571D01*
X110896666Y-116702380D02*
X110896666Y-115702380D01*
X110420476Y-116178571D02*
X110087142Y-116178571D01*
X109944285Y-116702380D02*
X110420476Y-116702380D01*
X110420476Y-115702380D01*
X109944285Y-115702380D01*
X118032380Y-109452380D02*
X117365714Y-109452380D01*
X118032380Y-110452380D01*
X117365714Y-110452380D01*
X116984761Y-110071428D02*
X116222857Y-110071428D01*
X114825714Y-110404761D02*
X114682857Y-110452380D01*
X114444761Y-110452380D01*
X114349523Y-110404761D01*
X114301904Y-110357142D01*
X114254285Y-110261904D01*
X114254285Y-110166666D01*
X114301904Y-110071428D01*
X114349523Y-110023809D01*
X114444761Y-109976190D01*
X114635238Y-109928571D01*
X114730476Y-109880952D01*
X114778095Y-109833333D01*
X114825714Y-109738095D01*
X114825714Y-109642857D01*
X114778095Y-109547619D01*
X114730476Y-109500000D01*
X114635238Y-109452380D01*
X114397142Y-109452380D01*
X114254285Y-109500000D01*
X112190476Y-109452380D02*
X112666666Y-109452380D01*
X112714285Y-109928571D01*
X112666666Y-109880952D01*
X112571428Y-109833333D01*
X112333333Y-109833333D01*
X112238095Y-109880952D01*
X112190476Y-109928571D01*
X112142857Y-110023809D01*
X112142857Y-110261904D01*
X112190476Y-110357142D01*
X112238095Y-110404761D01*
X112333333Y-110452380D01*
X112571428Y-110452380D01*
X112666666Y-110404761D01*
X112714285Y-110357142D01*
X111857142Y-109452380D02*
X111523809Y-110452380D01*
X111190476Y-109452380D01*
X109198095Y-109500000D02*
X109293333Y-109452380D01*
X109436190Y-109452380D01*
X109579047Y-109500000D01*
X109674285Y-109595238D01*
X109721904Y-109690476D01*
X109769523Y-109880952D01*
X109769523Y-110023809D01*
X109721904Y-110214285D01*
X109674285Y-110309523D01*
X109579047Y-110404761D01*
X109436190Y-110452380D01*
X109340952Y-110452380D01*
X109198095Y-110404761D01*
X109150476Y-110357142D01*
X109150476Y-110023809D01*
X109340952Y-110023809D01*
D11*
X113000000Y-113270000D02*
X113000000Y-115270000D01*
X108460000Y-113270000D02*
X108460000Y-115270000D01*
X108460000Y-115270000D02*
X113000000Y-115270000D01*
X108460000Y-113270000D02*
X113000000Y-113270000D01*
D10*
X105432380Y-111843333D02*
X104432380Y-111843333D01*
X105432380Y-112414761D01*
X104432380Y-112414761D01*
X104432380Y-112748095D02*
X104432380Y-113319523D01*
X105432380Y-113033809D02*
X104432380Y-113033809D01*
X105337142Y-114224285D02*
X105384761Y-114176666D01*
X105432380Y-114033809D01*
X105432380Y-113938571D01*
X105384761Y-113795714D01*
X105289523Y-113700476D01*
X105194285Y-113652857D01*
X105003809Y-113605238D01*
X104860952Y-113605238D01*
X104670476Y-113652857D01*
X104575238Y-113700476D01*
X104480000Y-113795714D01*
X104432380Y-113938571D01*
X104432380Y-114033809D01*
X104480000Y-114176666D01*
X104527619Y-114224285D01*
D11*
X105900000Y-115280000D02*
X107900000Y-115280000D01*
X105900000Y-110740000D02*
X107900000Y-110740000D01*
X107900000Y-110740000D02*
X107900000Y-115280000D01*
X105900000Y-110740000D02*
X105900000Y-115280000D01*
M02*
