%TF.GenerationSoftware,KiCad,Pcbnew,(5.1.6)-1*%
%TF.CreationDate,2023-02-05T19:48:36+01:00*%
%TF.ProjectId,Hotend_board,486f7465-6e64-45f6-926f-6172642e6b69,rev?*%
%TF.SameCoordinates,Original*%
%TF.FileFunction,Copper,L2,Bot*%
%TF.FilePolarity,Positive*%
%FSLAX46Y46*%
G04 Gerber Fmt 4.6, Leading zero omitted, Abs format (unit mm)*
G04 Created by KiCad (PCBNEW (5.1.6)-1) date 2023-02-05 19:48:36*
%MOMM*%
%LPD*%
G01*
G04 APERTURE LIST*
%TA.AperFunction,ComponentPad*%
%ADD10C,1.524000*%
%TD*%
%TA.AperFunction,Conductor*%
%ADD11C,0.254000*%
%TD*%
G04 APERTURE END LIST*
D10*
%TO.P,NTC,1*%
%TO.N,/NTC1*%
X110000000Y-118730000D03*
%TO.P,NTC,2*%
%TO.N,/NTC2*%
X110000000Y-121270000D03*
%TD*%
%TO.P,BLtouch,5*%
%TO.N,GND*%
X132080000Y-113000000D03*
%TO.P,BLtouch,4*%
%TO.N,+5V*%
X129540000Y-113000000D03*
%TO.P,BLtouch,3*%
%TO.N,/Servo*%
X127000000Y-113000000D03*
%TO.P,BLtouch,1*%
%TO.N,/Z-*%
X121920000Y-113000000D03*
%TO.P,BLtouch,2*%
%TO.N,GND*%
X124460000Y-113000000D03*
%TD*%
%TO.P,FAN,1*%
%TO.N,/HE_fan*%
X130000000Y-118730000D03*
%TO.P,FAN,2*%
%TO.N,GND*%
X130000000Y-121270000D03*
%TD*%
%TO.P,CNC,1*%
%TO.N,/CNC_fan*%
X120000000Y-118730000D03*
%TO.P,CNC,2*%
%TO.N,GND*%
X120000000Y-121270000D03*
%TD*%
%TO.P,CNC,1*%
%TO.N,/CNC_fan*%
X125000000Y-118730000D03*
%TO.P,CNC,2*%
%TO.N,GND*%
X125000000Y-121270000D03*
%TD*%
%TO.P,HE,1*%
%TO.N,/H1*%
X115000000Y-118730000D03*
%TO.P,HE,2*%
%TO.N,/H2*%
X115000000Y-121270000D03*
%TD*%
%TO.P,Connector,10*%
%TO.N,/Z-*%
X117080000Y-111730000D03*
%TO.P,Connector,9*%
%TO.N,/HE_fan*%
X117080000Y-114270000D03*
%TO.P,Connector,8*%
%TO.N,/Servo*%
X114540000Y-111730000D03*
%TO.P,Connector,7*%
%TO.N,/CNC_fan*%
X114540000Y-114270000D03*
%TO.P,Connector,6*%
%TO.N,+5V*%
X112000000Y-111730000D03*
%TO.P,Connector,5*%
%TO.N,/H1*%
X112000000Y-114270000D03*
%TO.P,Connector,4*%
%TO.N,GND*%
X109460000Y-111730000D03*
%TO.P,Connector,3*%
%TO.N,/H2*%
X109460000Y-114270000D03*
%TO.P,Connector,2*%
%TO.N,/NTC2*%
X106920000Y-111730000D03*
%TO.P,Connector,1*%
%TO.N,/NTC1*%
X106920000Y-114270000D03*
%TD*%
D11*
%TO.N,GND*%
G36*
X139340000Y-114273381D02*
G01*
X139340001Y-119726618D01*
X134726620Y-124340000D01*
X106273381Y-124340000D01*
X101660000Y-119726620D01*
X101660000Y-116771620D01*
X101681220Y-116771620D01*
X101681220Y-117228380D01*
X101770329Y-117676363D01*
X101945123Y-118098354D01*
X102198886Y-118478136D01*
X102521864Y-118801114D01*
X102901646Y-119054877D01*
X103323637Y-119229671D01*
X103771620Y-119318780D01*
X104228380Y-119318780D01*
X104676363Y-119229671D01*
X105098354Y-119054877D01*
X105478136Y-118801114D01*
X105686842Y-118592408D01*
X108603000Y-118592408D01*
X108603000Y-118867592D01*
X108656686Y-119137490D01*
X108761995Y-119391727D01*
X108914880Y-119620535D01*
X109109465Y-119815120D01*
X109338273Y-119968005D01*
X109415515Y-120000000D01*
X109338273Y-120031995D01*
X109109465Y-120184880D01*
X108914880Y-120379465D01*
X108761995Y-120608273D01*
X108656686Y-120862510D01*
X108603000Y-121132408D01*
X108603000Y-121407592D01*
X108656686Y-121677490D01*
X108761995Y-121931727D01*
X108914880Y-122160535D01*
X109109465Y-122355120D01*
X109338273Y-122508005D01*
X109592510Y-122613314D01*
X109862408Y-122667000D01*
X110137592Y-122667000D01*
X110407490Y-122613314D01*
X110661727Y-122508005D01*
X110890535Y-122355120D01*
X111085120Y-122160535D01*
X111238005Y-121931727D01*
X111343314Y-121677490D01*
X111397000Y-121407592D01*
X111397000Y-121132408D01*
X111343314Y-120862510D01*
X111238005Y-120608273D01*
X111085120Y-120379465D01*
X110890535Y-120184880D01*
X110661727Y-120031995D01*
X110584485Y-120000000D01*
X110661727Y-119968005D01*
X110890535Y-119815120D01*
X111085120Y-119620535D01*
X111238005Y-119391727D01*
X111343314Y-119137490D01*
X111397000Y-118867592D01*
X111397000Y-118592408D01*
X113603000Y-118592408D01*
X113603000Y-118867592D01*
X113656686Y-119137490D01*
X113761995Y-119391727D01*
X113914880Y-119620535D01*
X114109465Y-119815120D01*
X114338273Y-119968005D01*
X114415515Y-120000000D01*
X114338273Y-120031995D01*
X114109465Y-120184880D01*
X113914880Y-120379465D01*
X113761995Y-120608273D01*
X113656686Y-120862510D01*
X113603000Y-121132408D01*
X113603000Y-121407592D01*
X113656686Y-121677490D01*
X113761995Y-121931727D01*
X113914880Y-122160535D01*
X114109465Y-122355120D01*
X114338273Y-122508005D01*
X114592510Y-122613314D01*
X114862408Y-122667000D01*
X115137592Y-122667000D01*
X115407490Y-122613314D01*
X115661727Y-122508005D01*
X115890535Y-122355120D01*
X116010090Y-122235565D01*
X119214040Y-122235565D01*
X119281020Y-122475656D01*
X119530048Y-122592756D01*
X119797135Y-122659023D01*
X120072017Y-122671910D01*
X120344133Y-122630922D01*
X120603023Y-122537636D01*
X120718980Y-122475656D01*
X120785960Y-122235565D01*
X124214040Y-122235565D01*
X124281020Y-122475656D01*
X124530048Y-122592756D01*
X124797135Y-122659023D01*
X125072017Y-122671910D01*
X125344133Y-122630922D01*
X125603023Y-122537636D01*
X125718980Y-122475656D01*
X125785960Y-122235565D01*
X129214040Y-122235565D01*
X129281020Y-122475656D01*
X129530048Y-122592756D01*
X129797135Y-122659023D01*
X130072017Y-122671910D01*
X130344133Y-122630922D01*
X130603023Y-122537636D01*
X130718980Y-122475656D01*
X130785960Y-122235565D01*
X130000000Y-121449605D01*
X129214040Y-122235565D01*
X125785960Y-122235565D01*
X125000000Y-121449605D01*
X124214040Y-122235565D01*
X120785960Y-122235565D01*
X120000000Y-121449605D01*
X119214040Y-122235565D01*
X116010090Y-122235565D01*
X116085120Y-122160535D01*
X116238005Y-121931727D01*
X116343314Y-121677490D01*
X116397000Y-121407592D01*
X116397000Y-121342017D01*
X118598090Y-121342017D01*
X118639078Y-121614133D01*
X118732364Y-121873023D01*
X118794344Y-121988980D01*
X119034435Y-122055960D01*
X119820395Y-121270000D01*
X120179605Y-121270000D01*
X120965565Y-122055960D01*
X121205656Y-121988980D01*
X121322756Y-121739952D01*
X121389023Y-121472865D01*
X121395157Y-121342017D01*
X123598090Y-121342017D01*
X123639078Y-121614133D01*
X123732364Y-121873023D01*
X123794344Y-121988980D01*
X124034435Y-122055960D01*
X124820395Y-121270000D01*
X125179605Y-121270000D01*
X125965565Y-122055960D01*
X126205656Y-121988980D01*
X126322756Y-121739952D01*
X126389023Y-121472865D01*
X126395157Y-121342017D01*
X128598090Y-121342017D01*
X128639078Y-121614133D01*
X128732364Y-121873023D01*
X128794344Y-121988980D01*
X129034435Y-122055960D01*
X129820395Y-121270000D01*
X130179605Y-121270000D01*
X130965565Y-122055960D01*
X131205656Y-121988980D01*
X131322756Y-121739952D01*
X131389023Y-121472865D01*
X131401910Y-121197983D01*
X131360922Y-120925867D01*
X131267636Y-120666977D01*
X131205656Y-120551020D01*
X130965565Y-120484040D01*
X130179605Y-121270000D01*
X129820395Y-121270000D01*
X129034435Y-120484040D01*
X128794344Y-120551020D01*
X128677244Y-120800048D01*
X128610977Y-121067135D01*
X128598090Y-121342017D01*
X126395157Y-121342017D01*
X126401910Y-121197983D01*
X126360922Y-120925867D01*
X126267636Y-120666977D01*
X126205656Y-120551020D01*
X125965565Y-120484040D01*
X125179605Y-121270000D01*
X124820395Y-121270000D01*
X124034435Y-120484040D01*
X123794344Y-120551020D01*
X123677244Y-120800048D01*
X123610977Y-121067135D01*
X123598090Y-121342017D01*
X121395157Y-121342017D01*
X121401910Y-121197983D01*
X121360922Y-120925867D01*
X121267636Y-120666977D01*
X121205656Y-120551020D01*
X120965565Y-120484040D01*
X120179605Y-121270000D01*
X119820395Y-121270000D01*
X119034435Y-120484040D01*
X118794344Y-120551020D01*
X118677244Y-120800048D01*
X118610977Y-121067135D01*
X118598090Y-121342017D01*
X116397000Y-121342017D01*
X116397000Y-121132408D01*
X116343314Y-120862510D01*
X116238005Y-120608273D01*
X116085120Y-120379465D01*
X115890535Y-120184880D01*
X115661727Y-120031995D01*
X115584485Y-120000000D01*
X115661727Y-119968005D01*
X115890535Y-119815120D01*
X116085120Y-119620535D01*
X116238005Y-119391727D01*
X116343314Y-119137490D01*
X116397000Y-118867592D01*
X116397000Y-118592408D01*
X118603000Y-118592408D01*
X118603000Y-118867592D01*
X118656686Y-119137490D01*
X118761995Y-119391727D01*
X118914880Y-119620535D01*
X119109465Y-119815120D01*
X119338273Y-119968005D01*
X119409943Y-119997692D01*
X119396977Y-120002364D01*
X119281020Y-120064344D01*
X119214040Y-120304435D01*
X120000000Y-121090395D01*
X120785960Y-120304435D01*
X120718980Y-120064344D01*
X120583240Y-120000515D01*
X120661727Y-119968005D01*
X120890535Y-119815120D01*
X121085120Y-119620535D01*
X121238005Y-119391727D01*
X121343314Y-119137490D01*
X121397000Y-118867592D01*
X121397000Y-118592408D01*
X123603000Y-118592408D01*
X123603000Y-118867592D01*
X123656686Y-119137490D01*
X123761995Y-119391727D01*
X123914880Y-119620535D01*
X124109465Y-119815120D01*
X124338273Y-119968005D01*
X124409943Y-119997692D01*
X124396977Y-120002364D01*
X124281020Y-120064344D01*
X124214040Y-120304435D01*
X125000000Y-121090395D01*
X125785960Y-120304435D01*
X125718980Y-120064344D01*
X125583240Y-120000515D01*
X125661727Y-119968005D01*
X125890535Y-119815120D01*
X126085120Y-119620535D01*
X126238005Y-119391727D01*
X126343314Y-119137490D01*
X126397000Y-118867592D01*
X126397000Y-118592408D01*
X128603000Y-118592408D01*
X128603000Y-118867592D01*
X128656686Y-119137490D01*
X128761995Y-119391727D01*
X128914880Y-119620535D01*
X129109465Y-119815120D01*
X129338273Y-119968005D01*
X129409943Y-119997692D01*
X129396977Y-120002364D01*
X129281020Y-120064344D01*
X129214040Y-120304435D01*
X130000000Y-121090395D01*
X130785960Y-120304435D01*
X130718980Y-120064344D01*
X130583240Y-120000515D01*
X130661727Y-119968005D01*
X130890535Y-119815120D01*
X131085120Y-119620535D01*
X131238005Y-119391727D01*
X131343314Y-119137490D01*
X131397000Y-118867592D01*
X131397000Y-118592408D01*
X131343314Y-118322510D01*
X131238005Y-118068273D01*
X131085120Y-117839465D01*
X130890535Y-117644880D01*
X130661727Y-117491995D01*
X130407490Y-117386686D01*
X130137592Y-117333000D01*
X129862408Y-117333000D01*
X129592510Y-117386686D01*
X129338273Y-117491995D01*
X129109465Y-117644880D01*
X128914880Y-117839465D01*
X128761995Y-118068273D01*
X128656686Y-118322510D01*
X128603000Y-118592408D01*
X126397000Y-118592408D01*
X126343314Y-118322510D01*
X126238005Y-118068273D01*
X126085120Y-117839465D01*
X125890535Y-117644880D01*
X125661727Y-117491995D01*
X125407490Y-117386686D01*
X125137592Y-117333000D01*
X124862408Y-117333000D01*
X124592510Y-117386686D01*
X124338273Y-117491995D01*
X124109465Y-117644880D01*
X123914880Y-117839465D01*
X123761995Y-118068273D01*
X123656686Y-118322510D01*
X123603000Y-118592408D01*
X121397000Y-118592408D01*
X121343314Y-118322510D01*
X121238005Y-118068273D01*
X121085120Y-117839465D01*
X120890535Y-117644880D01*
X120661727Y-117491995D01*
X120407490Y-117386686D01*
X120137592Y-117333000D01*
X119862408Y-117333000D01*
X119592510Y-117386686D01*
X119338273Y-117491995D01*
X119109465Y-117644880D01*
X118914880Y-117839465D01*
X118761995Y-118068273D01*
X118656686Y-118322510D01*
X118603000Y-118592408D01*
X116397000Y-118592408D01*
X116343314Y-118322510D01*
X116238005Y-118068273D01*
X116085120Y-117839465D01*
X115890535Y-117644880D01*
X115661727Y-117491995D01*
X115407490Y-117386686D01*
X115137592Y-117333000D01*
X114862408Y-117333000D01*
X114592510Y-117386686D01*
X114338273Y-117491995D01*
X114109465Y-117644880D01*
X113914880Y-117839465D01*
X113761995Y-118068273D01*
X113656686Y-118322510D01*
X113603000Y-118592408D01*
X111397000Y-118592408D01*
X111343314Y-118322510D01*
X111238005Y-118068273D01*
X111085120Y-117839465D01*
X110890535Y-117644880D01*
X110661727Y-117491995D01*
X110407490Y-117386686D01*
X110137592Y-117333000D01*
X109862408Y-117333000D01*
X109592510Y-117386686D01*
X109338273Y-117491995D01*
X109109465Y-117644880D01*
X108914880Y-117839465D01*
X108761995Y-118068273D01*
X108656686Y-118322510D01*
X108603000Y-118592408D01*
X105686842Y-118592408D01*
X105801114Y-118478136D01*
X106054877Y-118098354D01*
X106229671Y-117676363D01*
X106318780Y-117228380D01*
X106318780Y-116771620D01*
X134681220Y-116771620D01*
X134681220Y-117228380D01*
X134770329Y-117676363D01*
X134945123Y-118098354D01*
X135198886Y-118478136D01*
X135521864Y-118801114D01*
X135901646Y-119054877D01*
X136323637Y-119229671D01*
X136771620Y-119318780D01*
X137228380Y-119318780D01*
X137676363Y-119229671D01*
X138098354Y-119054877D01*
X138478136Y-118801114D01*
X138801114Y-118478136D01*
X139054877Y-118098354D01*
X139229671Y-117676363D01*
X139318780Y-117228380D01*
X139318780Y-116771620D01*
X139229671Y-116323637D01*
X139054877Y-115901646D01*
X138801114Y-115521864D01*
X138478136Y-115198886D01*
X138098354Y-114945123D01*
X137676363Y-114770329D01*
X137228380Y-114681220D01*
X136771620Y-114681220D01*
X136323637Y-114770329D01*
X135901646Y-114945123D01*
X135521864Y-115198886D01*
X135198886Y-115521864D01*
X134945123Y-115901646D01*
X134770329Y-116323637D01*
X134681220Y-116771620D01*
X106318780Y-116771620D01*
X106229671Y-116323637D01*
X106054877Y-115901646D01*
X105801114Y-115521864D01*
X105478136Y-115198886D01*
X105098354Y-114945123D01*
X104676363Y-114770329D01*
X104228380Y-114681220D01*
X103771620Y-114681220D01*
X103323637Y-114770329D01*
X102901646Y-114945123D01*
X102521864Y-115198886D01*
X102198886Y-115521864D01*
X101945123Y-115901646D01*
X101770329Y-116323637D01*
X101681220Y-116771620D01*
X101660000Y-116771620D01*
X101660000Y-114273380D01*
X104340972Y-111592408D01*
X105523000Y-111592408D01*
X105523000Y-111867592D01*
X105576686Y-112137490D01*
X105681995Y-112391727D01*
X105834880Y-112620535D01*
X106029465Y-112815120D01*
X106258273Y-112968005D01*
X106335515Y-113000000D01*
X106258273Y-113031995D01*
X106029465Y-113184880D01*
X105834880Y-113379465D01*
X105681995Y-113608273D01*
X105576686Y-113862510D01*
X105523000Y-114132408D01*
X105523000Y-114407592D01*
X105576686Y-114677490D01*
X105681995Y-114931727D01*
X105834880Y-115160535D01*
X106029465Y-115355120D01*
X106258273Y-115508005D01*
X106512510Y-115613314D01*
X106782408Y-115667000D01*
X107057592Y-115667000D01*
X107327490Y-115613314D01*
X107581727Y-115508005D01*
X107810535Y-115355120D01*
X108005120Y-115160535D01*
X108158005Y-114931727D01*
X108190000Y-114854485D01*
X108221995Y-114931727D01*
X108374880Y-115160535D01*
X108569465Y-115355120D01*
X108798273Y-115508005D01*
X109052510Y-115613314D01*
X109322408Y-115667000D01*
X109597592Y-115667000D01*
X109867490Y-115613314D01*
X110121727Y-115508005D01*
X110350535Y-115355120D01*
X110545120Y-115160535D01*
X110698005Y-114931727D01*
X110730000Y-114854485D01*
X110761995Y-114931727D01*
X110914880Y-115160535D01*
X111109465Y-115355120D01*
X111338273Y-115508005D01*
X111592510Y-115613314D01*
X111862408Y-115667000D01*
X112137592Y-115667000D01*
X112407490Y-115613314D01*
X112661727Y-115508005D01*
X112890535Y-115355120D01*
X113085120Y-115160535D01*
X113238005Y-114931727D01*
X113270000Y-114854485D01*
X113301995Y-114931727D01*
X113454880Y-115160535D01*
X113649465Y-115355120D01*
X113878273Y-115508005D01*
X114132510Y-115613314D01*
X114402408Y-115667000D01*
X114677592Y-115667000D01*
X114947490Y-115613314D01*
X115201727Y-115508005D01*
X115430535Y-115355120D01*
X115625120Y-115160535D01*
X115778005Y-114931727D01*
X115810000Y-114854485D01*
X115841995Y-114931727D01*
X115994880Y-115160535D01*
X116189465Y-115355120D01*
X116418273Y-115508005D01*
X116672510Y-115613314D01*
X116942408Y-115667000D01*
X117217592Y-115667000D01*
X117487490Y-115613314D01*
X117741727Y-115508005D01*
X117970535Y-115355120D01*
X118165120Y-115160535D01*
X118318005Y-114931727D01*
X118423314Y-114677490D01*
X118477000Y-114407592D01*
X118477000Y-114132408D01*
X118423314Y-113862510D01*
X118318005Y-113608273D01*
X118165120Y-113379465D01*
X117970535Y-113184880D01*
X117741727Y-113031995D01*
X117664485Y-113000000D01*
X117741727Y-112968005D01*
X117899763Y-112862408D01*
X120523000Y-112862408D01*
X120523000Y-113137592D01*
X120576686Y-113407490D01*
X120681995Y-113661727D01*
X120834880Y-113890535D01*
X121029465Y-114085120D01*
X121258273Y-114238005D01*
X121512510Y-114343314D01*
X121782408Y-114397000D01*
X122057592Y-114397000D01*
X122327490Y-114343314D01*
X122581727Y-114238005D01*
X122810535Y-114085120D01*
X122930090Y-113965565D01*
X123674040Y-113965565D01*
X123741020Y-114205656D01*
X123990048Y-114322756D01*
X124257135Y-114389023D01*
X124532017Y-114401910D01*
X124804133Y-114360922D01*
X125063023Y-114267636D01*
X125178980Y-114205656D01*
X125245960Y-113965565D01*
X124460000Y-113179605D01*
X123674040Y-113965565D01*
X122930090Y-113965565D01*
X123005120Y-113890535D01*
X123158005Y-113661727D01*
X123187692Y-113590057D01*
X123192364Y-113603023D01*
X123254344Y-113718980D01*
X123494435Y-113785960D01*
X124280395Y-113000000D01*
X124639605Y-113000000D01*
X125425565Y-113785960D01*
X125665656Y-113718980D01*
X125729485Y-113583240D01*
X125761995Y-113661727D01*
X125914880Y-113890535D01*
X126109465Y-114085120D01*
X126338273Y-114238005D01*
X126592510Y-114343314D01*
X126862408Y-114397000D01*
X127137592Y-114397000D01*
X127407490Y-114343314D01*
X127661727Y-114238005D01*
X127890535Y-114085120D01*
X128085120Y-113890535D01*
X128238005Y-113661727D01*
X128270000Y-113584485D01*
X128301995Y-113661727D01*
X128454880Y-113890535D01*
X128649465Y-114085120D01*
X128878273Y-114238005D01*
X129132510Y-114343314D01*
X129402408Y-114397000D01*
X129677592Y-114397000D01*
X129947490Y-114343314D01*
X130201727Y-114238005D01*
X130430535Y-114085120D01*
X130550090Y-113965565D01*
X131294040Y-113965565D01*
X131361020Y-114205656D01*
X131610048Y-114322756D01*
X131877135Y-114389023D01*
X132152017Y-114401910D01*
X132424133Y-114360922D01*
X132683023Y-114267636D01*
X132798980Y-114205656D01*
X132865960Y-113965565D01*
X132080000Y-113179605D01*
X131294040Y-113965565D01*
X130550090Y-113965565D01*
X130625120Y-113890535D01*
X130778005Y-113661727D01*
X130807692Y-113590057D01*
X130812364Y-113603023D01*
X130874344Y-113718980D01*
X131114435Y-113785960D01*
X131900395Y-113000000D01*
X132259605Y-113000000D01*
X133045565Y-113785960D01*
X133285656Y-113718980D01*
X133402756Y-113469952D01*
X133469023Y-113202865D01*
X133481910Y-112927983D01*
X133440922Y-112655867D01*
X133347636Y-112396977D01*
X133285656Y-112281020D01*
X133045565Y-112214040D01*
X132259605Y-113000000D01*
X131900395Y-113000000D01*
X131114435Y-112214040D01*
X130874344Y-112281020D01*
X130810515Y-112416760D01*
X130778005Y-112338273D01*
X130625120Y-112109465D01*
X130550090Y-112034435D01*
X131294040Y-112034435D01*
X132080000Y-112820395D01*
X132865960Y-112034435D01*
X132798980Y-111794344D01*
X132549952Y-111677244D01*
X132282865Y-111610977D01*
X132007983Y-111598090D01*
X131735867Y-111639078D01*
X131476977Y-111732364D01*
X131361020Y-111794344D01*
X131294040Y-112034435D01*
X130550090Y-112034435D01*
X130430535Y-111914880D01*
X130201727Y-111761995D01*
X129947490Y-111656686D01*
X129677592Y-111603000D01*
X129402408Y-111603000D01*
X129132510Y-111656686D01*
X128878273Y-111761995D01*
X128649465Y-111914880D01*
X128454880Y-112109465D01*
X128301995Y-112338273D01*
X128270000Y-112415515D01*
X128238005Y-112338273D01*
X128085120Y-112109465D01*
X127890535Y-111914880D01*
X127661727Y-111761995D01*
X127407490Y-111656686D01*
X127137592Y-111603000D01*
X126862408Y-111603000D01*
X126592510Y-111656686D01*
X126338273Y-111761995D01*
X126109465Y-111914880D01*
X125914880Y-112109465D01*
X125761995Y-112338273D01*
X125732308Y-112409943D01*
X125727636Y-112396977D01*
X125665656Y-112281020D01*
X125425565Y-112214040D01*
X124639605Y-113000000D01*
X124280395Y-113000000D01*
X123494435Y-112214040D01*
X123254344Y-112281020D01*
X123190515Y-112416760D01*
X123158005Y-112338273D01*
X123005120Y-112109465D01*
X122930090Y-112034435D01*
X123674040Y-112034435D01*
X124460000Y-112820395D01*
X125245960Y-112034435D01*
X125178980Y-111794344D01*
X124929952Y-111677244D01*
X124662865Y-111610977D01*
X124387983Y-111598090D01*
X124115867Y-111639078D01*
X123856977Y-111732364D01*
X123741020Y-111794344D01*
X123674040Y-112034435D01*
X122930090Y-112034435D01*
X122810535Y-111914880D01*
X122581727Y-111761995D01*
X122327490Y-111656686D01*
X122057592Y-111603000D01*
X121782408Y-111603000D01*
X121512510Y-111656686D01*
X121258273Y-111761995D01*
X121029465Y-111914880D01*
X120834880Y-112109465D01*
X120681995Y-112338273D01*
X120576686Y-112592510D01*
X120523000Y-112862408D01*
X117899763Y-112862408D01*
X117970535Y-112815120D01*
X118165120Y-112620535D01*
X118318005Y-112391727D01*
X118423314Y-112137490D01*
X118477000Y-111867592D01*
X118477000Y-111592408D01*
X118423314Y-111322510D01*
X118318005Y-111068273D01*
X118165120Y-110839465D01*
X117970535Y-110644880D01*
X117741727Y-110491995D01*
X117487490Y-110386686D01*
X117217592Y-110333000D01*
X116942408Y-110333000D01*
X116672510Y-110386686D01*
X116418273Y-110491995D01*
X116189465Y-110644880D01*
X115994880Y-110839465D01*
X115841995Y-111068273D01*
X115810000Y-111145515D01*
X115778005Y-111068273D01*
X115625120Y-110839465D01*
X115430535Y-110644880D01*
X115201727Y-110491995D01*
X114947490Y-110386686D01*
X114677592Y-110333000D01*
X114402408Y-110333000D01*
X114132510Y-110386686D01*
X113878273Y-110491995D01*
X113649465Y-110644880D01*
X113454880Y-110839465D01*
X113301995Y-111068273D01*
X113270000Y-111145515D01*
X113238005Y-111068273D01*
X113085120Y-110839465D01*
X112890535Y-110644880D01*
X112661727Y-110491995D01*
X112407490Y-110386686D01*
X112137592Y-110333000D01*
X111862408Y-110333000D01*
X111592510Y-110386686D01*
X111338273Y-110491995D01*
X111109465Y-110644880D01*
X110914880Y-110839465D01*
X110761995Y-111068273D01*
X110732308Y-111139943D01*
X110727636Y-111126977D01*
X110665656Y-111011020D01*
X110425565Y-110944040D01*
X109639605Y-111730000D01*
X110425565Y-112515960D01*
X110665656Y-112448980D01*
X110729485Y-112313240D01*
X110761995Y-112391727D01*
X110914880Y-112620535D01*
X111109465Y-112815120D01*
X111338273Y-112968005D01*
X111415515Y-113000000D01*
X111338273Y-113031995D01*
X111109465Y-113184880D01*
X110914880Y-113379465D01*
X110761995Y-113608273D01*
X110730000Y-113685515D01*
X110698005Y-113608273D01*
X110545120Y-113379465D01*
X110350535Y-113184880D01*
X110121727Y-113031995D01*
X110050057Y-113002308D01*
X110063023Y-112997636D01*
X110178980Y-112935656D01*
X110245960Y-112695565D01*
X109460000Y-111909605D01*
X108674040Y-112695565D01*
X108741020Y-112935656D01*
X108876760Y-112999485D01*
X108798273Y-113031995D01*
X108569465Y-113184880D01*
X108374880Y-113379465D01*
X108221995Y-113608273D01*
X108190000Y-113685515D01*
X108158005Y-113608273D01*
X108005120Y-113379465D01*
X107810535Y-113184880D01*
X107581727Y-113031995D01*
X107504485Y-113000000D01*
X107581727Y-112968005D01*
X107810535Y-112815120D01*
X108005120Y-112620535D01*
X108158005Y-112391727D01*
X108187692Y-112320057D01*
X108192364Y-112333023D01*
X108254344Y-112448980D01*
X108494435Y-112515960D01*
X109280395Y-111730000D01*
X108494435Y-110944040D01*
X108254344Y-111011020D01*
X108190515Y-111146760D01*
X108158005Y-111068273D01*
X108005120Y-110839465D01*
X107930090Y-110764435D01*
X108674040Y-110764435D01*
X109460000Y-111550395D01*
X110245960Y-110764435D01*
X110178980Y-110524344D01*
X109929952Y-110407244D01*
X109662865Y-110340977D01*
X109387983Y-110328090D01*
X109115867Y-110369078D01*
X108856977Y-110462364D01*
X108741020Y-110524344D01*
X108674040Y-110764435D01*
X107930090Y-110764435D01*
X107810535Y-110644880D01*
X107581727Y-110491995D01*
X107327490Y-110386686D01*
X107057592Y-110333000D01*
X106782408Y-110333000D01*
X106512510Y-110386686D01*
X106258273Y-110491995D01*
X106029465Y-110644880D01*
X105834880Y-110839465D01*
X105681995Y-111068273D01*
X105576686Y-111322510D01*
X105523000Y-111592408D01*
X104340972Y-111592408D01*
X106273381Y-109660000D01*
X134726620Y-109660000D01*
X139340000Y-114273381D01*
G37*
X139340000Y-114273381D02*
X139340001Y-119726618D01*
X134726620Y-124340000D01*
X106273381Y-124340000D01*
X101660000Y-119726620D01*
X101660000Y-116771620D01*
X101681220Y-116771620D01*
X101681220Y-117228380D01*
X101770329Y-117676363D01*
X101945123Y-118098354D01*
X102198886Y-118478136D01*
X102521864Y-118801114D01*
X102901646Y-119054877D01*
X103323637Y-119229671D01*
X103771620Y-119318780D01*
X104228380Y-119318780D01*
X104676363Y-119229671D01*
X105098354Y-119054877D01*
X105478136Y-118801114D01*
X105686842Y-118592408D01*
X108603000Y-118592408D01*
X108603000Y-118867592D01*
X108656686Y-119137490D01*
X108761995Y-119391727D01*
X108914880Y-119620535D01*
X109109465Y-119815120D01*
X109338273Y-119968005D01*
X109415515Y-120000000D01*
X109338273Y-120031995D01*
X109109465Y-120184880D01*
X108914880Y-120379465D01*
X108761995Y-120608273D01*
X108656686Y-120862510D01*
X108603000Y-121132408D01*
X108603000Y-121407592D01*
X108656686Y-121677490D01*
X108761995Y-121931727D01*
X108914880Y-122160535D01*
X109109465Y-122355120D01*
X109338273Y-122508005D01*
X109592510Y-122613314D01*
X109862408Y-122667000D01*
X110137592Y-122667000D01*
X110407490Y-122613314D01*
X110661727Y-122508005D01*
X110890535Y-122355120D01*
X111085120Y-122160535D01*
X111238005Y-121931727D01*
X111343314Y-121677490D01*
X111397000Y-121407592D01*
X111397000Y-121132408D01*
X111343314Y-120862510D01*
X111238005Y-120608273D01*
X111085120Y-120379465D01*
X110890535Y-120184880D01*
X110661727Y-120031995D01*
X110584485Y-120000000D01*
X110661727Y-119968005D01*
X110890535Y-119815120D01*
X111085120Y-119620535D01*
X111238005Y-119391727D01*
X111343314Y-119137490D01*
X111397000Y-118867592D01*
X111397000Y-118592408D01*
X113603000Y-118592408D01*
X113603000Y-118867592D01*
X113656686Y-119137490D01*
X113761995Y-119391727D01*
X113914880Y-119620535D01*
X114109465Y-119815120D01*
X114338273Y-119968005D01*
X114415515Y-120000000D01*
X114338273Y-120031995D01*
X114109465Y-120184880D01*
X113914880Y-120379465D01*
X113761995Y-120608273D01*
X113656686Y-120862510D01*
X113603000Y-121132408D01*
X113603000Y-121407592D01*
X113656686Y-121677490D01*
X113761995Y-121931727D01*
X113914880Y-122160535D01*
X114109465Y-122355120D01*
X114338273Y-122508005D01*
X114592510Y-122613314D01*
X114862408Y-122667000D01*
X115137592Y-122667000D01*
X115407490Y-122613314D01*
X115661727Y-122508005D01*
X115890535Y-122355120D01*
X116010090Y-122235565D01*
X119214040Y-122235565D01*
X119281020Y-122475656D01*
X119530048Y-122592756D01*
X119797135Y-122659023D01*
X120072017Y-122671910D01*
X120344133Y-122630922D01*
X120603023Y-122537636D01*
X120718980Y-122475656D01*
X120785960Y-122235565D01*
X124214040Y-122235565D01*
X124281020Y-122475656D01*
X124530048Y-122592756D01*
X124797135Y-122659023D01*
X125072017Y-122671910D01*
X125344133Y-122630922D01*
X125603023Y-122537636D01*
X125718980Y-122475656D01*
X125785960Y-122235565D01*
X129214040Y-122235565D01*
X129281020Y-122475656D01*
X129530048Y-122592756D01*
X129797135Y-122659023D01*
X130072017Y-122671910D01*
X130344133Y-122630922D01*
X130603023Y-122537636D01*
X130718980Y-122475656D01*
X130785960Y-122235565D01*
X130000000Y-121449605D01*
X129214040Y-122235565D01*
X125785960Y-122235565D01*
X125000000Y-121449605D01*
X124214040Y-122235565D01*
X120785960Y-122235565D01*
X120000000Y-121449605D01*
X119214040Y-122235565D01*
X116010090Y-122235565D01*
X116085120Y-122160535D01*
X116238005Y-121931727D01*
X116343314Y-121677490D01*
X116397000Y-121407592D01*
X116397000Y-121342017D01*
X118598090Y-121342017D01*
X118639078Y-121614133D01*
X118732364Y-121873023D01*
X118794344Y-121988980D01*
X119034435Y-122055960D01*
X119820395Y-121270000D01*
X120179605Y-121270000D01*
X120965565Y-122055960D01*
X121205656Y-121988980D01*
X121322756Y-121739952D01*
X121389023Y-121472865D01*
X121395157Y-121342017D01*
X123598090Y-121342017D01*
X123639078Y-121614133D01*
X123732364Y-121873023D01*
X123794344Y-121988980D01*
X124034435Y-122055960D01*
X124820395Y-121270000D01*
X125179605Y-121270000D01*
X125965565Y-122055960D01*
X126205656Y-121988980D01*
X126322756Y-121739952D01*
X126389023Y-121472865D01*
X126395157Y-121342017D01*
X128598090Y-121342017D01*
X128639078Y-121614133D01*
X128732364Y-121873023D01*
X128794344Y-121988980D01*
X129034435Y-122055960D01*
X129820395Y-121270000D01*
X130179605Y-121270000D01*
X130965565Y-122055960D01*
X131205656Y-121988980D01*
X131322756Y-121739952D01*
X131389023Y-121472865D01*
X131401910Y-121197983D01*
X131360922Y-120925867D01*
X131267636Y-120666977D01*
X131205656Y-120551020D01*
X130965565Y-120484040D01*
X130179605Y-121270000D01*
X129820395Y-121270000D01*
X129034435Y-120484040D01*
X128794344Y-120551020D01*
X128677244Y-120800048D01*
X128610977Y-121067135D01*
X128598090Y-121342017D01*
X126395157Y-121342017D01*
X126401910Y-121197983D01*
X126360922Y-120925867D01*
X126267636Y-120666977D01*
X126205656Y-120551020D01*
X125965565Y-120484040D01*
X125179605Y-121270000D01*
X124820395Y-121270000D01*
X124034435Y-120484040D01*
X123794344Y-120551020D01*
X123677244Y-120800048D01*
X123610977Y-121067135D01*
X123598090Y-121342017D01*
X121395157Y-121342017D01*
X121401910Y-121197983D01*
X121360922Y-120925867D01*
X121267636Y-120666977D01*
X121205656Y-120551020D01*
X120965565Y-120484040D01*
X120179605Y-121270000D01*
X119820395Y-121270000D01*
X119034435Y-120484040D01*
X118794344Y-120551020D01*
X118677244Y-120800048D01*
X118610977Y-121067135D01*
X118598090Y-121342017D01*
X116397000Y-121342017D01*
X116397000Y-121132408D01*
X116343314Y-120862510D01*
X116238005Y-120608273D01*
X116085120Y-120379465D01*
X115890535Y-120184880D01*
X115661727Y-120031995D01*
X115584485Y-120000000D01*
X115661727Y-119968005D01*
X115890535Y-119815120D01*
X116085120Y-119620535D01*
X116238005Y-119391727D01*
X116343314Y-119137490D01*
X116397000Y-118867592D01*
X116397000Y-118592408D01*
X118603000Y-118592408D01*
X118603000Y-118867592D01*
X118656686Y-119137490D01*
X118761995Y-119391727D01*
X118914880Y-119620535D01*
X119109465Y-119815120D01*
X119338273Y-119968005D01*
X119409943Y-119997692D01*
X119396977Y-120002364D01*
X119281020Y-120064344D01*
X119214040Y-120304435D01*
X120000000Y-121090395D01*
X120785960Y-120304435D01*
X120718980Y-120064344D01*
X120583240Y-120000515D01*
X120661727Y-119968005D01*
X120890535Y-119815120D01*
X121085120Y-119620535D01*
X121238005Y-119391727D01*
X121343314Y-119137490D01*
X121397000Y-118867592D01*
X121397000Y-118592408D01*
X123603000Y-118592408D01*
X123603000Y-118867592D01*
X123656686Y-119137490D01*
X123761995Y-119391727D01*
X123914880Y-119620535D01*
X124109465Y-119815120D01*
X124338273Y-119968005D01*
X124409943Y-119997692D01*
X124396977Y-120002364D01*
X124281020Y-120064344D01*
X124214040Y-120304435D01*
X125000000Y-121090395D01*
X125785960Y-120304435D01*
X125718980Y-120064344D01*
X125583240Y-120000515D01*
X125661727Y-119968005D01*
X125890535Y-119815120D01*
X126085120Y-119620535D01*
X126238005Y-119391727D01*
X126343314Y-119137490D01*
X126397000Y-118867592D01*
X126397000Y-118592408D01*
X128603000Y-118592408D01*
X128603000Y-118867592D01*
X128656686Y-119137490D01*
X128761995Y-119391727D01*
X128914880Y-119620535D01*
X129109465Y-119815120D01*
X129338273Y-119968005D01*
X129409943Y-119997692D01*
X129396977Y-120002364D01*
X129281020Y-120064344D01*
X129214040Y-120304435D01*
X130000000Y-121090395D01*
X130785960Y-120304435D01*
X130718980Y-120064344D01*
X130583240Y-120000515D01*
X130661727Y-119968005D01*
X130890535Y-119815120D01*
X131085120Y-119620535D01*
X131238005Y-119391727D01*
X131343314Y-119137490D01*
X131397000Y-118867592D01*
X131397000Y-118592408D01*
X131343314Y-118322510D01*
X131238005Y-118068273D01*
X131085120Y-117839465D01*
X130890535Y-117644880D01*
X130661727Y-117491995D01*
X130407490Y-117386686D01*
X130137592Y-117333000D01*
X129862408Y-117333000D01*
X129592510Y-117386686D01*
X129338273Y-117491995D01*
X129109465Y-117644880D01*
X128914880Y-117839465D01*
X128761995Y-118068273D01*
X128656686Y-118322510D01*
X128603000Y-118592408D01*
X126397000Y-118592408D01*
X126343314Y-118322510D01*
X126238005Y-118068273D01*
X126085120Y-117839465D01*
X125890535Y-117644880D01*
X125661727Y-117491995D01*
X125407490Y-117386686D01*
X125137592Y-117333000D01*
X124862408Y-117333000D01*
X124592510Y-117386686D01*
X124338273Y-117491995D01*
X124109465Y-117644880D01*
X123914880Y-117839465D01*
X123761995Y-118068273D01*
X123656686Y-118322510D01*
X123603000Y-118592408D01*
X121397000Y-118592408D01*
X121343314Y-118322510D01*
X121238005Y-118068273D01*
X121085120Y-117839465D01*
X120890535Y-117644880D01*
X120661727Y-117491995D01*
X120407490Y-117386686D01*
X120137592Y-117333000D01*
X119862408Y-117333000D01*
X119592510Y-117386686D01*
X119338273Y-117491995D01*
X119109465Y-117644880D01*
X118914880Y-117839465D01*
X118761995Y-118068273D01*
X118656686Y-118322510D01*
X118603000Y-118592408D01*
X116397000Y-118592408D01*
X116343314Y-118322510D01*
X116238005Y-118068273D01*
X116085120Y-117839465D01*
X115890535Y-117644880D01*
X115661727Y-117491995D01*
X115407490Y-117386686D01*
X115137592Y-117333000D01*
X114862408Y-117333000D01*
X114592510Y-117386686D01*
X114338273Y-117491995D01*
X114109465Y-117644880D01*
X113914880Y-117839465D01*
X113761995Y-118068273D01*
X113656686Y-118322510D01*
X113603000Y-118592408D01*
X111397000Y-118592408D01*
X111343314Y-118322510D01*
X111238005Y-118068273D01*
X111085120Y-117839465D01*
X110890535Y-117644880D01*
X110661727Y-117491995D01*
X110407490Y-117386686D01*
X110137592Y-117333000D01*
X109862408Y-117333000D01*
X109592510Y-117386686D01*
X109338273Y-117491995D01*
X109109465Y-117644880D01*
X108914880Y-117839465D01*
X108761995Y-118068273D01*
X108656686Y-118322510D01*
X108603000Y-118592408D01*
X105686842Y-118592408D01*
X105801114Y-118478136D01*
X106054877Y-118098354D01*
X106229671Y-117676363D01*
X106318780Y-117228380D01*
X106318780Y-116771620D01*
X134681220Y-116771620D01*
X134681220Y-117228380D01*
X134770329Y-117676363D01*
X134945123Y-118098354D01*
X135198886Y-118478136D01*
X135521864Y-118801114D01*
X135901646Y-119054877D01*
X136323637Y-119229671D01*
X136771620Y-119318780D01*
X137228380Y-119318780D01*
X137676363Y-119229671D01*
X138098354Y-119054877D01*
X138478136Y-118801114D01*
X138801114Y-118478136D01*
X139054877Y-118098354D01*
X139229671Y-117676363D01*
X139318780Y-117228380D01*
X139318780Y-116771620D01*
X139229671Y-116323637D01*
X139054877Y-115901646D01*
X138801114Y-115521864D01*
X138478136Y-115198886D01*
X138098354Y-114945123D01*
X137676363Y-114770329D01*
X137228380Y-114681220D01*
X136771620Y-114681220D01*
X136323637Y-114770329D01*
X135901646Y-114945123D01*
X135521864Y-115198886D01*
X135198886Y-115521864D01*
X134945123Y-115901646D01*
X134770329Y-116323637D01*
X134681220Y-116771620D01*
X106318780Y-116771620D01*
X106229671Y-116323637D01*
X106054877Y-115901646D01*
X105801114Y-115521864D01*
X105478136Y-115198886D01*
X105098354Y-114945123D01*
X104676363Y-114770329D01*
X104228380Y-114681220D01*
X103771620Y-114681220D01*
X103323637Y-114770329D01*
X102901646Y-114945123D01*
X102521864Y-115198886D01*
X102198886Y-115521864D01*
X101945123Y-115901646D01*
X101770329Y-116323637D01*
X101681220Y-116771620D01*
X101660000Y-116771620D01*
X101660000Y-114273380D01*
X104340972Y-111592408D01*
X105523000Y-111592408D01*
X105523000Y-111867592D01*
X105576686Y-112137490D01*
X105681995Y-112391727D01*
X105834880Y-112620535D01*
X106029465Y-112815120D01*
X106258273Y-112968005D01*
X106335515Y-113000000D01*
X106258273Y-113031995D01*
X106029465Y-113184880D01*
X105834880Y-113379465D01*
X105681995Y-113608273D01*
X105576686Y-113862510D01*
X105523000Y-114132408D01*
X105523000Y-114407592D01*
X105576686Y-114677490D01*
X105681995Y-114931727D01*
X105834880Y-115160535D01*
X106029465Y-115355120D01*
X106258273Y-115508005D01*
X106512510Y-115613314D01*
X106782408Y-115667000D01*
X107057592Y-115667000D01*
X107327490Y-115613314D01*
X107581727Y-115508005D01*
X107810535Y-115355120D01*
X108005120Y-115160535D01*
X108158005Y-114931727D01*
X108190000Y-114854485D01*
X108221995Y-114931727D01*
X108374880Y-115160535D01*
X108569465Y-115355120D01*
X108798273Y-115508005D01*
X109052510Y-115613314D01*
X109322408Y-115667000D01*
X109597592Y-115667000D01*
X109867490Y-115613314D01*
X110121727Y-115508005D01*
X110350535Y-115355120D01*
X110545120Y-115160535D01*
X110698005Y-114931727D01*
X110730000Y-114854485D01*
X110761995Y-114931727D01*
X110914880Y-115160535D01*
X111109465Y-115355120D01*
X111338273Y-115508005D01*
X111592510Y-115613314D01*
X111862408Y-115667000D01*
X112137592Y-115667000D01*
X112407490Y-115613314D01*
X112661727Y-115508005D01*
X112890535Y-115355120D01*
X113085120Y-115160535D01*
X113238005Y-114931727D01*
X113270000Y-114854485D01*
X113301995Y-114931727D01*
X113454880Y-115160535D01*
X113649465Y-115355120D01*
X113878273Y-115508005D01*
X114132510Y-115613314D01*
X114402408Y-115667000D01*
X114677592Y-115667000D01*
X114947490Y-115613314D01*
X115201727Y-115508005D01*
X115430535Y-115355120D01*
X115625120Y-115160535D01*
X115778005Y-114931727D01*
X115810000Y-114854485D01*
X115841995Y-114931727D01*
X115994880Y-115160535D01*
X116189465Y-115355120D01*
X116418273Y-115508005D01*
X116672510Y-115613314D01*
X116942408Y-115667000D01*
X117217592Y-115667000D01*
X117487490Y-115613314D01*
X117741727Y-115508005D01*
X117970535Y-115355120D01*
X118165120Y-115160535D01*
X118318005Y-114931727D01*
X118423314Y-114677490D01*
X118477000Y-114407592D01*
X118477000Y-114132408D01*
X118423314Y-113862510D01*
X118318005Y-113608273D01*
X118165120Y-113379465D01*
X117970535Y-113184880D01*
X117741727Y-113031995D01*
X117664485Y-113000000D01*
X117741727Y-112968005D01*
X117899763Y-112862408D01*
X120523000Y-112862408D01*
X120523000Y-113137592D01*
X120576686Y-113407490D01*
X120681995Y-113661727D01*
X120834880Y-113890535D01*
X121029465Y-114085120D01*
X121258273Y-114238005D01*
X121512510Y-114343314D01*
X121782408Y-114397000D01*
X122057592Y-114397000D01*
X122327490Y-114343314D01*
X122581727Y-114238005D01*
X122810535Y-114085120D01*
X122930090Y-113965565D01*
X123674040Y-113965565D01*
X123741020Y-114205656D01*
X123990048Y-114322756D01*
X124257135Y-114389023D01*
X124532017Y-114401910D01*
X124804133Y-114360922D01*
X125063023Y-114267636D01*
X125178980Y-114205656D01*
X125245960Y-113965565D01*
X124460000Y-113179605D01*
X123674040Y-113965565D01*
X122930090Y-113965565D01*
X123005120Y-113890535D01*
X123158005Y-113661727D01*
X123187692Y-113590057D01*
X123192364Y-113603023D01*
X123254344Y-113718980D01*
X123494435Y-113785960D01*
X124280395Y-113000000D01*
X124639605Y-113000000D01*
X125425565Y-113785960D01*
X125665656Y-113718980D01*
X125729485Y-113583240D01*
X125761995Y-113661727D01*
X125914880Y-113890535D01*
X126109465Y-114085120D01*
X126338273Y-114238005D01*
X126592510Y-114343314D01*
X126862408Y-114397000D01*
X127137592Y-114397000D01*
X127407490Y-114343314D01*
X127661727Y-114238005D01*
X127890535Y-114085120D01*
X128085120Y-113890535D01*
X128238005Y-113661727D01*
X128270000Y-113584485D01*
X128301995Y-113661727D01*
X128454880Y-113890535D01*
X128649465Y-114085120D01*
X128878273Y-114238005D01*
X129132510Y-114343314D01*
X129402408Y-114397000D01*
X129677592Y-114397000D01*
X129947490Y-114343314D01*
X130201727Y-114238005D01*
X130430535Y-114085120D01*
X130550090Y-113965565D01*
X131294040Y-113965565D01*
X131361020Y-114205656D01*
X131610048Y-114322756D01*
X131877135Y-114389023D01*
X132152017Y-114401910D01*
X132424133Y-114360922D01*
X132683023Y-114267636D01*
X132798980Y-114205656D01*
X132865960Y-113965565D01*
X132080000Y-113179605D01*
X131294040Y-113965565D01*
X130550090Y-113965565D01*
X130625120Y-113890535D01*
X130778005Y-113661727D01*
X130807692Y-113590057D01*
X130812364Y-113603023D01*
X130874344Y-113718980D01*
X131114435Y-113785960D01*
X131900395Y-113000000D01*
X132259605Y-113000000D01*
X133045565Y-113785960D01*
X133285656Y-113718980D01*
X133402756Y-113469952D01*
X133469023Y-113202865D01*
X133481910Y-112927983D01*
X133440922Y-112655867D01*
X133347636Y-112396977D01*
X133285656Y-112281020D01*
X133045565Y-112214040D01*
X132259605Y-113000000D01*
X131900395Y-113000000D01*
X131114435Y-112214040D01*
X130874344Y-112281020D01*
X130810515Y-112416760D01*
X130778005Y-112338273D01*
X130625120Y-112109465D01*
X130550090Y-112034435D01*
X131294040Y-112034435D01*
X132080000Y-112820395D01*
X132865960Y-112034435D01*
X132798980Y-111794344D01*
X132549952Y-111677244D01*
X132282865Y-111610977D01*
X132007983Y-111598090D01*
X131735867Y-111639078D01*
X131476977Y-111732364D01*
X131361020Y-111794344D01*
X131294040Y-112034435D01*
X130550090Y-112034435D01*
X130430535Y-111914880D01*
X130201727Y-111761995D01*
X129947490Y-111656686D01*
X129677592Y-111603000D01*
X129402408Y-111603000D01*
X129132510Y-111656686D01*
X128878273Y-111761995D01*
X128649465Y-111914880D01*
X128454880Y-112109465D01*
X128301995Y-112338273D01*
X128270000Y-112415515D01*
X128238005Y-112338273D01*
X128085120Y-112109465D01*
X127890535Y-111914880D01*
X127661727Y-111761995D01*
X127407490Y-111656686D01*
X127137592Y-111603000D01*
X126862408Y-111603000D01*
X126592510Y-111656686D01*
X126338273Y-111761995D01*
X126109465Y-111914880D01*
X125914880Y-112109465D01*
X125761995Y-112338273D01*
X125732308Y-112409943D01*
X125727636Y-112396977D01*
X125665656Y-112281020D01*
X125425565Y-112214040D01*
X124639605Y-113000000D01*
X124280395Y-113000000D01*
X123494435Y-112214040D01*
X123254344Y-112281020D01*
X123190515Y-112416760D01*
X123158005Y-112338273D01*
X123005120Y-112109465D01*
X122930090Y-112034435D01*
X123674040Y-112034435D01*
X124460000Y-112820395D01*
X125245960Y-112034435D01*
X125178980Y-111794344D01*
X124929952Y-111677244D01*
X124662865Y-111610977D01*
X124387983Y-111598090D01*
X124115867Y-111639078D01*
X123856977Y-111732364D01*
X123741020Y-111794344D01*
X123674040Y-112034435D01*
X122930090Y-112034435D01*
X122810535Y-111914880D01*
X122581727Y-111761995D01*
X122327490Y-111656686D01*
X122057592Y-111603000D01*
X121782408Y-111603000D01*
X121512510Y-111656686D01*
X121258273Y-111761995D01*
X121029465Y-111914880D01*
X120834880Y-112109465D01*
X120681995Y-112338273D01*
X120576686Y-112592510D01*
X120523000Y-112862408D01*
X117899763Y-112862408D01*
X117970535Y-112815120D01*
X118165120Y-112620535D01*
X118318005Y-112391727D01*
X118423314Y-112137490D01*
X118477000Y-111867592D01*
X118477000Y-111592408D01*
X118423314Y-111322510D01*
X118318005Y-111068273D01*
X118165120Y-110839465D01*
X117970535Y-110644880D01*
X117741727Y-110491995D01*
X117487490Y-110386686D01*
X117217592Y-110333000D01*
X116942408Y-110333000D01*
X116672510Y-110386686D01*
X116418273Y-110491995D01*
X116189465Y-110644880D01*
X115994880Y-110839465D01*
X115841995Y-111068273D01*
X115810000Y-111145515D01*
X115778005Y-111068273D01*
X115625120Y-110839465D01*
X115430535Y-110644880D01*
X115201727Y-110491995D01*
X114947490Y-110386686D01*
X114677592Y-110333000D01*
X114402408Y-110333000D01*
X114132510Y-110386686D01*
X113878273Y-110491995D01*
X113649465Y-110644880D01*
X113454880Y-110839465D01*
X113301995Y-111068273D01*
X113270000Y-111145515D01*
X113238005Y-111068273D01*
X113085120Y-110839465D01*
X112890535Y-110644880D01*
X112661727Y-110491995D01*
X112407490Y-110386686D01*
X112137592Y-110333000D01*
X111862408Y-110333000D01*
X111592510Y-110386686D01*
X111338273Y-110491995D01*
X111109465Y-110644880D01*
X110914880Y-110839465D01*
X110761995Y-111068273D01*
X110732308Y-111139943D01*
X110727636Y-111126977D01*
X110665656Y-111011020D01*
X110425565Y-110944040D01*
X109639605Y-111730000D01*
X110425565Y-112515960D01*
X110665656Y-112448980D01*
X110729485Y-112313240D01*
X110761995Y-112391727D01*
X110914880Y-112620535D01*
X111109465Y-112815120D01*
X111338273Y-112968005D01*
X111415515Y-113000000D01*
X111338273Y-113031995D01*
X111109465Y-113184880D01*
X110914880Y-113379465D01*
X110761995Y-113608273D01*
X110730000Y-113685515D01*
X110698005Y-113608273D01*
X110545120Y-113379465D01*
X110350535Y-113184880D01*
X110121727Y-113031995D01*
X110050057Y-113002308D01*
X110063023Y-112997636D01*
X110178980Y-112935656D01*
X110245960Y-112695565D01*
X109460000Y-111909605D01*
X108674040Y-112695565D01*
X108741020Y-112935656D01*
X108876760Y-112999485D01*
X108798273Y-113031995D01*
X108569465Y-113184880D01*
X108374880Y-113379465D01*
X108221995Y-113608273D01*
X108190000Y-113685515D01*
X108158005Y-113608273D01*
X108005120Y-113379465D01*
X107810535Y-113184880D01*
X107581727Y-113031995D01*
X107504485Y-113000000D01*
X107581727Y-112968005D01*
X107810535Y-112815120D01*
X108005120Y-112620535D01*
X108158005Y-112391727D01*
X108187692Y-112320057D01*
X108192364Y-112333023D01*
X108254344Y-112448980D01*
X108494435Y-112515960D01*
X109280395Y-111730000D01*
X108494435Y-110944040D01*
X108254344Y-111011020D01*
X108190515Y-111146760D01*
X108158005Y-111068273D01*
X108005120Y-110839465D01*
X107930090Y-110764435D01*
X108674040Y-110764435D01*
X109460000Y-111550395D01*
X110245960Y-110764435D01*
X110178980Y-110524344D01*
X109929952Y-110407244D01*
X109662865Y-110340977D01*
X109387983Y-110328090D01*
X109115867Y-110369078D01*
X108856977Y-110462364D01*
X108741020Y-110524344D01*
X108674040Y-110764435D01*
X107930090Y-110764435D01*
X107810535Y-110644880D01*
X107581727Y-110491995D01*
X107327490Y-110386686D01*
X107057592Y-110333000D01*
X106782408Y-110333000D01*
X106512510Y-110386686D01*
X106258273Y-110491995D01*
X106029465Y-110644880D01*
X105834880Y-110839465D01*
X105681995Y-111068273D01*
X105576686Y-111322510D01*
X105523000Y-111592408D01*
X104340972Y-111592408D01*
X106273381Y-109660000D01*
X134726620Y-109660000D01*
X139340000Y-114273381D01*
%TD*%
M02*
