M48
; DRILL file {KiCad (5.1.6)-1} date 02/05/23 19:48:33
; FORMAT={-:-/ absolute / inch / decimal}
; #@! TF.CreationDate,2023-02-05T19:48:33+01:00
; #@! TF.GenerationSoftware,Kicad,Pcbnew,(5.1.6)-1
FMAT,2
INCH
T1C0.0300
T2C0.0315
%
G90
G05
T1
X4.2094Y-4.3988
X4.2094Y-4.4988
X4.3094Y-4.3988
X4.3094Y-4.4988
X4.4094Y-4.3988
X4.4094Y-4.4988
X4.5094Y-4.3988
X4.5094Y-4.4988
X4.6094Y-4.3988
X4.6094Y-4.4988
T2
X4.7244Y-4.6744
X4.7244Y-4.7744
X5.1181Y-4.6744
X5.1181Y-4.7744
X4.3307Y-4.6744
X4.3307Y-4.7744
X4.8Y-4.4488
X4.9Y-4.4488
X5.0Y-4.4488
X5.1Y-4.4488
X5.2Y-4.4488
X4.5276Y-4.6744
X4.5276Y-4.7744
X4.9213Y-4.6744
X4.9213Y-4.7744
T0
M30
