%TF.GenerationSoftware,KiCad,Pcbnew,(5.1.6)-1*%
%TF.CreationDate,2023-02-05T19:48:36+01:00*%
%TF.ProjectId,Hotend_board,486f7465-6e64-45f6-926f-6172642e6b69,rev?*%
%TF.SameCoordinates,Original*%
%TF.FileFunction,Legend,Top*%
%TF.FilePolarity,Positive*%
%FSLAX46Y46*%
G04 Gerber Fmt 4.6, Leading zero omitted, Abs format (unit mm)*
G04 Created by KiCad (PCBNEW (5.1.6)-1) date 2023-02-05 19:48:36*
%MOMM*%
%LPD*%
G01*
G04 APERTURE LIST*
%ADD10C,0.120000*%
%ADD11C,0.150000*%
G04 APERTURE END LIST*
D10*
%TO.C,NTC*%
X112400000Y-116250000D02*
X107700000Y-116250000D01*
X107700000Y-116250000D02*
X107700000Y-123750000D01*
X112400000Y-116250000D02*
X112400000Y-123750000D01*
X112400000Y-123750000D02*
X107700000Y-123750000D01*
%TO.C,BLtouch*%
X119500000Y-110600000D02*
X119500000Y-115300000D01*
X119500000Y-115300000D02*
X134500000Y-115300000D01*
X119500000Y-110600000D02*
X134500000Y-110600000D01*
X134500000Y-110600000D02*
X134500000Y-115300000D01*
%TO.C,FAN*%
X132400000Y-116250000D02*
X127700000Y-116250000D01*
X127700000Y-116250000D02*
X127700000Y-123750000D01*
X132400000Y-116250000D02*
X132400000Y-123750000D01*
X132400000Y-123750000D02*
X127700000Y-123750000D01*
%TO.C,CNC*%
X122400000Y-116250000D02*
X117700000Y-116250000D01*
X117700000Y-116250000D02*
X117700000Y-123750000D01*
X122400000Y-116250000D02*
X122400000Y-123750000D01*
X122400000Y-123750000D02*
X117700000Y-123750000D01*
X127400000Y-116250000D02*
X122700000Y-116250000D01*
X122700000Y-116250000D02*
X122700000Y-123750000D01*
X127400000Y-116250000D02*
X127400000Y-123750000D01*
X127400000Y-123750000D02*
X122700000Y-123750000D01*
%TO.C,HE*%
X117400000Y-116250000D02*
X112700000Y-116250000D01*
X112700000Y-116250000D02*
X112700000Y-123750000D01*
X117400000Y-116250000D02*
X117400000Y-123750000D01*
X117400000Y-123750000D02*
X112700000Y-123750000D01*
%TO.C,NTC*%
D11*
X108833333Y-124902380D02*
X108833333Y-123902380D01*
X109404761Y-124902380D01*
X109404761Y-123902380D01*
X109738095Y-123902380D02*
X110309523Y-123902380D01*
X110023809Y-124902380D02*
X110023809Y-123902380D01*
X111214285Y-124807142D02*
X111166666Y-124854761D01*
X111023809Y-124902380D01*
X110928571Y-124902380D01*
X110785714Y-124854761D01*
X110690476Y-124759523D01*
X110642857Y-124664285D01*
X110595238Y-124473809D01*
X110595238Y-124330952D01*
X110642857Y-124140476D01*
X110690476Y-124045238D01*
X110785714Y-123950000D01*
X110928571Y-123902380D01*
X111023809Y-123902380D01*
X111166666Y-123950000D01*
X111214285Y-123997619D01*
%TO.C,BLtouch*%
X124595238Y-109928571D02*
X124738095Y-109976190D01*
X124785714Y-110023809D01*
X124833333Y-110119047D01*
X124833333Y-110261904D01*
X124785714Y-110357142D01*
X124738095Y-110404761D01*
X124642857Y-110452380D01*
X124261904Y-110452380D01*
X124261904Y-109452380D01*
X124595238Y-109452380D01*
X124690476Y-109500000D01*
X124738095Y-109547619D01*
X124785714Y-109642857D01*
X124785714Y-109738095D01*
X124738095Y-109833333D01*
X124690476Y-109880952D01*
X124595238Y-109928571D01*
X124261904Y-109928571D01*
X125738095Y-110452380D02*
X125261904Y-110452380D01*
X125261904Y-109452380D01*
X125928571Y-109785714D02*
X126309523Y-109785714D01*
X126071428Y-109452380D02*
X126071428Y-110309523D01*
X126119047Y-110404761D01*
X126214285Y-110452380D01*
X126309523Y-110452380D01*
X126785714Y-110452380D02*
X126690476Y-110404761D01*
X126642857Y-110357142D01*
X126595238Y-110261904D01*
X126595238Y-109976190D01*
X126642857Y-109880952D01*
X126690476Y-109833333D01*
X126785714Y-109785714D01*
X126928571Y-109785714D01*
X127023809Y-109833333D01*
X127071428Y-109880952D01*
X127119047Y-109976190D01*
X127119047Y-110261904D01*
X127071428Y-110357142D01*
X127023809Y-110404761D01*
X126928571Y-110452380D01*
X126785714Y-110452380D01*
X127976190Y-109785714D02*
X127976190Y-110452380D01*
X127547619Y-109785714D02*
X127547619Y-110309523D01*
X127595238Y-110404761D01*
X127690476Y-110452380D01*
X127833333Y-110452380D01*
X127928571Y-110404761D01*
X127976190Y-110357142D01*
X128880952Y-110404761D02*
X128785714Y-110452380D01*
X128595238Y-110452380D01*
X128500000Y-110404761D01*
X128452380Y-110357142D01*
X128404761Y-110261904D01*
X128404761Y-109976190D01*
X128452380Y-109880952D01*
X128500000Y-109833333D01*
X128595238Y-109785714D01*
X128785714Y-109785714D01*
X128880952Y-109833333D01*
X129309523Y-110452380D02*
X129309523Y-109452380D01*
X129738095Y-110452380D02*
X129738095Y-109928571D01*
X129690476Y-109833333D01*
X129595238Y-109785714D01*
X129452380Y-109785714D01*
X129357142Y-109833333D01*
X129309523Y-109880952D01*
%TO.C,FAN*%
X129190476Y-124378571D02*
X128857142Y-124378571D01*
X128857142Y-124902380D02*
X128857142Y-123902380D01*
X129333333Y-123902380D01*
X129666666Y-124616666D02*
X130142857Y-124616666D01*
X129571428Y-124902380D02*
X129904761Y-123902380D01*
X130238095Y-124902380D01*
X130571428Y-124902380D02*
X130571428Y-123902380D01*
X131142857Y-124902380D01*
X131142857Y-123902380D01*
%TO.C,CNC*%
X119285714Y-124807142D02*
X119238095Y-124854761D01*
X119095238Y-124902380D01*
X119000000Y-124902380D01*
X118857142Y-124854761D01*
X118761904Y-124759523D01*
X118714285Y-124664285D01*
X118666666Y-124473809D01*
X118666666Y-124330952D01*
X118714285Y-124140476D01*
X118761904Y-124045238D01*
X118857142Y-123950000D01*
X119000000Y-123902380D01*
X119095238Y-123902380D01*
X119238095Y-123950000D01*
X119285714Y-123997619D01*
X119714285Y-124902380D02*
X119714285Y-123902380D01*
X120285714Y-124902380D01*
X120285714Y-123902380D01*
X121333333Y-124807142D02*
X121285714Y-124854761D01*
X121142857Y-124902380D01*
X121047619Y-124902380D01*
X120904761Y-124854761D01*
X120809523Y-124759523D01*
X120761904Y-124664285D01*
X120714285Y-124473809D01*
X120714285Y-124330952D01*
X120761904Y-124140476D01*
X120809523Y-124045238D01*
X120904761Y-123950000D01*
X121047619Y-123902380D01*
X121142857Y-123902380D01*
X121285714Y-123950000D01*
X121333333Y-123997619D01*
X124285714Y-124807142D02*
X124238095Y-124854761D01*
X124095238Y-124902380D01*
X124000000Y-124902380D01*
X123857142Y-124854761D01*
X123761904Y-124759523D01*
X123714285Y-124664285D01*
X123666666Y-124473809D01*
X123666666Y-124330952D01*
X123714285Y-124140476D01*
X123761904Y-124045238D01*
X123857142Y-123950000D01*
X124000000Y-123902380D01*
X124095238Y-123902380D01*
X124238095Y-123950000D01*
X124285714Y-123997619D01*
X124714285Y-124902380D02*
X124714285Y-123902380D01*
X125285714Y-124902380D01*
X125285714Y-123902380D01*
X126333333Y-124807142D02*
X126285714Y-124854761D01*
X126142857Y-124902380D01*
X126047619Y-124902380D01*
X125904761Y-124854761D01*
X125809523Y-124759523D01*
X125761904Y-124664285D01*
X125714285Y-124473809D01*
X125714285Y-124330952D01*
X125761904Y-124140476D01*
X125809523Y-124045238D01*
X125904761Y-123950000D01*
X126047619Y-123902380D01*
X126142857Y-123902380D01*
X126285714Y-123950000D01*
X126333333Y-123997619D01*
%TO.C,HE*%
X114261904Y-124902380D02*
X114261904Y-123902380D01*
X114261904Y-124378571D02*
X114833333Y-124378571D01*
X114833333Y-124902380D02*
X114833333Y-123902380D01*
X115309523Y-124378571D02*
X115642857Y-124378571D01*
X115785714Y-124902380D02*
X115309523Y-124902380D01*
X115309523Y-123902380D01*
X115785714Y-123902380D01*
%TO.C,Connector*%
X108827619Y-110147142D02*
X108780000Y-110194761D01*
X108637142Y-110242380D01*
X108541904Y-110242380D01*
X108399047Y-110194761D01*
X108303809Y-110099523D01*
X108256190Y-110004285D01*
X108208571Y-109813809D01*
X108208571Y-109670952D01*
X108256190Y-109480476D01*
X108303809Y-109385238D01*
X108399047Y-109290000D01*
X108541904Y-109242380D01*
X108637142Y-109242380D01*
X108780000Y-109290000D01*
X108827619Y-109337619D01*
X109399047Y-110242380D02*
X109303809Y-110194761D01*
X109256190Y-110147142D01*
X109208571Y-110051904D01*
X109208571Y-109766190D01*
X109256190Y-109670952D01*
X109303809Y-109623333D01*
X109399047Y-109575714D01*
X109541904Y-109575714D01*
X109637142Y-109623333D01*
X109684761Y-109670952D01*
X109732380Y-109766190D01*
X109732380Y-110051904D01*
X109684761Y-110147142D01*
X109637142Y-110194761D01*
X109541904Y-110242380D01*
X109399047Y-110242380D01*
X110160952Y-109575714D02*
X110160952Y-110242380D01*
X110160952Y-109670952D02*
X110208571Y-109623333D01*
X110303809Y-109575714D01*
X110446666Y-109575714D01*
X110541904Y-109623333D01*
X110589523Y-109718571D01*
X110589523Y-110242380D01*
X111065714Y-109575714D02*
X111065714Y-110242380D01*
X111065714Y-109670952D02*
X111113333Y-109623333D01*
X111208571Y-109575714D01*
X111351428Y-109575714D01*
X111446666Y-109623333D01*
X111494285Y-109718571D01*
X111494285Y-110242380D01*
X112351428Y-110194761D02*
X112256190Y-110242380D01*
X112065714Y-110242380D01*
X111970476Y-110194761D01*
X111922857Y-110099523D01*
X111922857Y-109718571D01*
X111970476Y-109623333D01*
X112065714Y-109575714D01*
X112256190Y-109575714D01*
X112351428Y-109623333D01*
X112399047Y-109718571D01*
X112399047Y-109813809D01*
X111922857Y-109909047D01*
X113256190Y-110194761D02*
X113160952Y-110242380D01*
X112970476Y-110242380D01*
X112875238Y-110194761D01*
X112827619Y-110147142D01*
X112780000Y-110051904D01*
X112780000Y-109766190D01*
X112827619Y-109670952D01*
X112875238Y-109623333D01*
X112970476Y-109575714D01*
X113160952Y-109575714D01*
X113256190Y-109623333D01*
X113541904Y-109575714D02*
X113922857Y-109575714D01*
X113684761Y-109242380D02*
X113684761Y-110099523D01*
X113732380Y-110194761D01*
X113827619Y-110242380D01*
X113922857Y-110242380D01*
X114399047Y-110242380D02*
X114303809Y-110194761D01*
X114256190Y-110147142D01*
X114208571Y-110051904D01*
X114208571Y-109766190D01*
X114256190Y-109670952D01*
X114303809Y-109623333D01*
X114399047Y-109575714D01*
X114541904Y-109575714D01*
X114637142Y-109623333D01*
X114684761Y-109670952D01*
X114732380Y-109766190D01*
X114732380Y-110051904D01*
X114684761Y-110147142D01*
X114637142Y-110194761D01*
X114541904Y-110242380D01*
X114399047Y-110242380D01*
X115160952Y-110242380D02*
X115160952Y-109575714D01*
X115160952Y-109766190D02*
X115208571Y-109670952D01*
X115256190Y-109623333D01*
X115351428Y-109575714D01*
X115446666Y-109575714D01*
%TD*%
M02*
